<svg width="234" height="484" viewBox="0 0 234 484" fill="none" xmlns="http://www.w3.org/2000/svg">
<g clip-path="url(#clip0_14_224)">
<path d="M0.800049 67.5L54.4 54.8V483.7L0.800049 466.4V67.5Z" fill="url(#paint0_linear_14_224)"/>
<path d="M26.6 19L201.7 32.6V15.1L26.6 0.400024V19Z" fill="url(#paint1_linear_14_224)"/>
<path d="M54.4 54.8L233.9 66.5L201.7 28.7L26.6 14.9L54.4 54.8Z" fill="url(#paint2_linear_14_224)"/>
<path d="M0.800049 67.5L26.6 14.9L54.4 54.8L0.800049 67.5Z" fill="url(#paint3_linear_14_224)"/>
<path d="M54.4 54.8L233.9 66.5V467.6L54.4 483.7V54.8Z" fill="url(#paint4_linear_14_224)"/>
<path d="M160.218 321.033C176.224 314.788 183.372 289.07 176.183 263.592C168.993 238.113 150.189 222.521 134.182 228.767C118.176 235.012 111.028 260.73 118.217 286.208C125.407 311.687 144.211 327.279 160.218 321.033Z" fill="#C67139"/>
<mask id="mask0_14_224" style="mask-type:luminance" maskUnits="userSpaceOnUse" x="115" y="227" width="64" height="96">
<path d="M160.218 321.033C176.224 314.788 183.372 289.07 176.183 263.592C168.993 238.113 150.189 222.521 134.182 228.767C118.176 235.012 111.028 260.73 118.217 286.208C125.407 311.687 144.211 327.279 160.218 321.033Z" fill="white"/>
</mask>
<g mask="url(#mask0_14_224)">
<path d="M133.987 280.055L128.113 282.347L133.987 280.055ZM135.41 223.057L133.712 217.04C128.987 218.883 126.269 223.295 124.772 227.439C123.235 231.696 122.491 236.922 122.348 242.663L128.461 242.3L134.574 241.938C134.698 236.989 135.337 233.41 136.162 231.126C137.028 228.728 137.65 228.863 137.108 229.075L135.41 223.057ZM128.461 242.3L122.348 242.663C122.06 254.197 124.189 268.445 128.113 282.347L133.987 280.055L139.862 277.763C136.175 264.696 134.329 251.782 134.574 241.938L128.461 242.3ZM133.987 280.055L128.113 282.347C132.036 296.25 137.572 309.169 143.666 318.212L148.751 314.206L153.836 310.199C148.634 302.48 143.549 290.83 139.862 277.763L133.987 280.055ZM148.751 314.206L143.666 318.212C146.7 322.714 149.953 326.38 153.349 328.712C156.655 330.982 161.078 332.608 165.802 330.765L164.104 324.747L162.406 318.73C162.949 318.518 162.519 319.064 160.606 317.751C158.783 316.499 156.451 314.08 153.836 310.199L148.751 314.206Z" fill="#F6F0E2"/>
</g>
<path d="M9.92032 235.345C10.1284 235.297 10.2882 235.336 10.3999 235.461C10.5115 235.581 10.5674 235.74 10.5674 235.938V240.164C10.9733 239.69 11.4174 239.249 11.8995 238.841C12.3867 238.427 12.8739 238.163 13.3611 238.051C13.8533 237.937 14.2644 237.967 14.5942 238.141C14.9292 238.308 15.1804 238.573 15.3479 238.936C15.5153 239.298 15.5991 239.714 15.5991 240.182V243.432C15.5991 243.615 15.6041 243.754 15.6143 243.851C15.6244 243.947 15.6549 244.031 15.7056 244.103C15.7615 244.168 15.8503 244.257 15.9721 244.37C16.0736 244.461 16.1446 244.536 16.1852 244.594C16.2258 244.652 16.2461 244.762 16.2461 244.924C16.2461 245.153 16.1776 245.346 16.0406 245.502C15.9036 245.654 15.7259 245.755 15.5077 245.805L12.2953 246.547C12.0822 246.596 11.9173 246.569 11.8005 246.466C11.6838 246.362 11.6255 246.204 11.6255 245.99C11.6255 245.792 11.6711 245.631 11.7625 245.506C11.8538 245.38 11.9452 245.245 12.0365 245.099C12.1279 244.947 12.1735 244.747 12.1735 244.497V241.817C12.1735 241.562 12.1228 241.331 12.0213 241.125C11.9249 240.919 11.727 240.85 11.4275 240.919C11.2449 240.961 11.085 241.034 10.948 241.139C10.811 241.238 10.6841 241.356 10.5674 241.492V244.797C10.5674 245.037 10.5953 245.213 10.6511 245.325C10.7069 245.432 10.7704 245.513 10.8414 245.57C10.9175 245.625 10.9835 245.688 11.0393 245.758C11.0951 245.829 11.1231 245.945 11.1231 246.106C11.1231 246.32 11.0647 246.505 10.948 246.662C10.8313 246.82 10.6663 246.923 10.4532 246.972L7.2408 247.714C7.02258 247.764 6.84242 247.746 6.70033 247.659C6.56331 247.57 6.4948 247.409 6.4948 247.175C6.4948 246.998 6.52778 246.855 6.59376 246.746C6.65973 246.632 6.73331 246.529 6.81451 246.437C6.90078 246.339 6.97691 246.222 7.04288 246.087C7.10885 245.952 7.14184 245.773 7.14184 245.549V239.15C7.14184 238.916 7.10378 238.75 7.02766 238.653C6.95661 238.55 6.87034 238.476 6.76884 238.432C6.67242 238.386 6.58614 238.331 6.51002 238.265C6.43897 238.198 6.40345 238.079 6.40345 237.907C6.40345 237.704 6.46942 237.53 6.60137 237.385C6.73331 237.234 6.88049 237.107 7.04288 237.001L8.70235 235.939C8.8952 235.816 9.09312 235.7 9.29611 235.591C9.4991 235.476 9.70717 235.394 9.92032 235.345ZM24.5511 238.553C24.5511 239.017 24.4166 239.399 24.1476 239.701C23.8838 240.001 23.5336 240.202 23.0971 240.303L20.0294 241.011C20.1461 241.432 20.3542 241.762 20.6536 242C20.953 242.233 21.3844 242.284 21.9477 242.154C22.171 242.103 22.3917 242.005 22.61 241.861C22.8333 241.71 23.0413 241.547 23.2342 241.373C23.4321 241.197 23.6046 241.045 23.7518 240.917C23.899 240.784 24.0106 240.709 24.0867 240.692C24.2339 240.658 24.3405 240.688 24.4065 240.782C24.4724 240.871 24.5054 240.983 24.5054 241.118C24.5054 241.592 24.3963 242.034 24.1781 242.444C23.9649 242.847 23.6808 243.207 23.3255 243.524C22.9754 243.839 22.5897 244.102 22.1685 244.314C21.7523 244.53 21.3413 244.685 20.9353 244.778C20.1385 244.962 19.4356 244.955 18.8267 244.757C18.2177 244.56 17.7407 244.196 17.3956 243.666C17.0555 243.13 16.8855 242.448 16.8855 241.62C16.8855 240.734 17.0505 239.925 17.3803 239.193C17.7153 238.459 18.1949 237.841 18.8191 237.337C19.4433 236.829 20.1918 236.474 21.0647 236.272C21.6686 236.133 22.2344 236.119 22.7622 236.232C23.2951 236.343 23.7264 236.59 24.0563 236.972C24.3862 237.354 24.5511 237.881 24.5511 238.553ZM19.8924 239.84C19.8924 239.897 19.8924 239.954 19.8924 240.011L20.6841 239.829C20.8769 239.784 21.0089 239.709 21.0799 239.604C21.1509 239.494 21.1865 239.345 21.1865 239.158C21.1865 239.033 21.1712 238.872 21.1408 238.676C21.1103 238.48 21.0495 238.312 20.9581 238.172C20.8718 238.03 20.745 237.979 20.5775 238.017C20.4252 238.052 20.3034 238.146 20.2121 238.297C20.1208 238.443 20.0522 238.618 20.0066 238.821C19.9609 239.019 19.9304 239.211 19.9152 239.397C19.9 239.583 19.8924 239.73 19.8924 239.84ZM28.8368 230.978C29.0449 230.93 29.2047 230.966 29.3164 231.086C29.4331 231.205 29.4915 231.366 29.4915 231.569V240.225C29.4915 240.376 29.4991 240.523 29.5143 240.665C29.5295 240.802 29.593 240.915 29.7046 241.004C29.8416 241.113 29.9583 241.201 30.0548 241.267C30.1563 241.327 30.207 241.471 30.207 241.7C30.207 241.935 30.136 242.128 29.9939 242.281C29.8518 242.433 29.6716 242.535 29.4534 242.585L26.104 243.359C25.8858 243.409 25.7056 243.391 25.5635 243.304C25.4214 243.217 25.3504 243.056 25.3504 242.822C25.3504 242.624 25.3859 242.472 25.457 242.367C25.528 242.257 25.6117 242.157 25.7082 242.067C25.8046 241.977 25.8883 241.864 25.9594 241.728C26.0304 241.587 26.0659 241.383 26.0659 241.117V234.781C26.0659 234.531 26.0253 234.359 25.9441 234.263C25.8629 234.167 25.7665 234.103 25.6549 234.072C25.5483 234.034 25.4544 233.985 25.3732 233.926C25.292 233.861 25.2514 233.738 25.2514 233.555C25.2514 233.347 25.3174 233.17 25.4493 233.025C25.5813 232.88 25.731 232.755 25.8985 232.648L27.596 231.577C27.799 231.446 28.002 231.327 28.205 231.217C28.408 231.108 28.6186 231.028 28.8368 230.978ZM34.5308 229.663C34.7388 229.615 34.8987 229.651 35.0103 229.771C35.1271 229.89 35.1854 230.051 35.1854 230.254V238.91C35.1854 239.061 35.193 239.208 35.2083 239.35C35.2235 239.488 35.2869 239.601 35.3986 239.689C35.5356 239.798 35.6523 239.886 35.7487 239.952C35.8502 240.012 35.901 240.157 35.901 240.386C35.901 240.62 35.8299 240.814 35.6878 240.966C35.5457 241.119 35.3656 241.22 35.1474 241.271L31.798 242.044C31.5798 242.094 31.3996 242.076 31.2575 241.989C31.1154 241.902 31.0444 241.741 31.0444 241.507C31.0444 241.309 31.0799 241.158 31.1509 241.053C31.222 240.943 31.3057 240.843 31.4021 240.753C31.4986 240.663 31.5823 240.55 31.6533 240.413C31.7244 240.272 31.7599 240.068 31.7599 239.803V233.467C31.7599 233.217 31.7193 233.044 31.6381 232.948C31.5569 232.852 31.4605 232.789 31.3488 232.757C31.2423 232.719 31.1484 232.671 31.0672 232.611C30.986 232.547 30.9454 232.423 30.9454 232.241C30.9454 232.033 31.0114 231.856 31.1433 231.711C31.2753 231.566 31.425 231.44 31.5924 231.334L33.29 230.262C33.493 230.132 33.696 230.012 33.899 229.903C34.1019 229.793 34.3126 229.714 34.5308 229.663ZM41.0012 231.669C41.8385 231.476 42.5719 231.484 43.2011 231.693C43.8355 231.9 44.3303 232.284 44.6855 232.842C45.0408 233.401 45.2184 234.112 45.2184 234.977C45.2184 235.826 45.023 236.611 44.6323 237.331C44.2415 238.046 43.7162 238.654 43.0565 239.156C42.4019 239.651 41.6736 239.991 40.8718 240.176C40.0294 240.37 39.291 240.364 38.6566 240.156C38.0223 239.943 37.5275 239.555 37.1722 238.991C36.8221 238.421 36.647 237.703 36.647 236.839C36.647 235.995 36.8449 235.215 37.2407 234.498C37.6366 233.782 38.1644 233.178 38.8241 232.688C39.4838 232.192 40.2095 231.852 41.0012 231.669ZM41.4351 238.319C41.562 238.29 41.6508 238.202 41.7015 238.055C41.7574 237.906 41.7929 237.75 41.8081 237.585C41.8233 237.414 41.8309 237.285 41.8309 237.197C41.8309 236.9 41.8081 236.611 41.7624 236.33C41.7168 236.043 41.6584 235.765 41.5873 235.495C41.562 235.386 41.5138 235.22 41.4427 234.997C41.3717 234.769 41.2854 234.533 41.1839 234.291C41.0824 234.049 40.9708 233.848 40.849 233.689C40.7272 233.529 40.5977 233.466 40.4607 233.497C40.344 233.524 40.2577 233.612 40.2019 233.76C40.1512 233.907 40.1182 234.066 40.103 234.236C40.0877 234.401 40.0801 234.525 40.0801 234.609C40.0801 234.749 40.1004 234.971 40.141 235.274C40.1816 235.572 40.24 235.902 40.3161 236.265C40.3973 236.626 40.4937 236.971 40.6054 237.3C40.717 237.623 40.8413 237.883 40.9784 238.081C41.1205 238.277 41.2727 238.357 41.4351 238.319Z" fill="#4C443A"/>
<path d="M13.4959 264.733V260.517L14.5758 260.536L14.6717 261.185L14.7277 261.186C14.7917 261.043 14.869 260.917 14.9597 260.806C15.0557 260.691 15.1703 260.602 15.3036 260.54C15.4423 260.479 15.5943 260.449 15.7596 260.452C15.8556 260.454 15.9436 260.466 16.0235 260.489C16.1035 260.506 16.1622 260.526 16.1995 260.548V261.692L15.7836 261.685C15.6183 261.682 15.4716 261.703 15.3436 261.749C15.221 261.789 15.1197 261.857 15.0397 261.952C14.9597 262.041 14.901 262.152 14.8637 262.285C14.8264 262.417 14.8077 262.572 14.8077 262.748V264.756L13.4959 264.733ZM18.7148 264.92C18.2456 264.912 17.8429 264.825 17.507 264.659C17.1764 264.493 16.9204 264.246 16.7391 263.917C16.5631 263.584 16.4752 263.169 16.4752 262.673C16.4752 262.177 16.5631 261.768 16.7391 261.445C16.9204 261.123 17.1764 260.885 17.507 260.731C17.8429 260.577 18.2456 260.504 18.7148 260.512C19.1894 260.52 19.592 260.607 19.9226 260.773C20.2586 260.939 20.5145 261.186 20.6905 261.514C20.8718 261.843 20.9625 262.255 20.9625 262.751C20.9625 263.247 20.8718 263.659 20.6905 263.986C20.5145 264.308 20.2586 264.547 19.9226 264.701C19.592 264.855 19.1894 264.928 18.7148 264.92ZM18.7148 263.968C18.9335 263.972 19.1094 263.932 19.2427 263.849C19.3814 263.766 19.48 263.645 19.5387 263.486C19.6027 263.322 19.6347 263.12 19.6347 262.88V262.584C19.6347 262.344 19.6027 262.141 19.5387 261.974C19.48 261.808 19.3814 261.683 19.2427 261.601C19.1094 261.513 18.9335 261.468 18.7148 261.464C18.5015 261.46 18.3255 261.5 18.1869 261.583C18.0536 261.66 17.9549 261.781 17.8909 261.945C17.8323 262.11 17.803 262.312 17.803 262.552V262.848C17.803 263.088 17.8323 263.291 17.8909 263.457C17.9549 263.618 18.0536 263.743 18.1869 263.831C18.3255 263.918 18.5015 263.964 18.7148 263.968ZM22.9283 264.993C22.7523 264.99 22.579 264.969 22.4084 264.928C22.2431 264.893 22.0911 264.832 21.9524 264.744C21.8191 264.651 21.7125 264.527 21.6325 264.371C21.5525 264.215 21.5125 264.019 21.5125 263.785C21.5125 263.481 21.5765 263.234 21.7045 263.044C21.8325 262.854 22.0164 262.708 22.2564 262.606C22.5017 262.498 22.795 262.426 23.1363 262.389C23.4829 262.352 23.8695 262.338 24.2961 262.345V262.081C24.2961 261.959 24.2721 261.857 24.2241 261.776C24.1761 261.69 24.1041 261.624 24.0081 261.58C23.9175 261.531 23.7948 261.504 23.6402 261.502C23.5015 261.499 23.3789 261.513 23.2722 261.543C23.1709 261.574 23.0936 261.62 23.0403 261.683C22.987 261.741 22.9603 261.813 22.9603 261.898V261.97L21.6805 261.948C21.6752 261.921 21.6725 261.899 21.6725 261.883C21.6725 261.862 21.6725 261.835 21.6725 261.803C21.6725 261.553 21.7498 261.335 21.9045 261.151C22.0644 260.968 22.2911 260.828 22.5844 260.731C22.8776 260.635 23.2323 260.591 23.6482 260.598C24.0375 260.605 24.3761 260.659 24.664 260.76C24.9573 260.861 25.1866 261.011 25.3519 261.212C25.5226 261.412 25.6079 261.672 25.6079 261.992V263.792C25.6079 263.883 25.6319 263.955 25.6799 264.009C25.7332 264.064 25.7972 264.091 25.8719 264.093L26.1438 264.097V264.905C26.0852 264.931 25.9918 264.959 25.8639 264.989C25.7412 265.024 25.5919 265.04 25.4159 265.037C25.2346 265.034 25.0746 265.007 24.936 264.956C24.8027 264.911 24.6907 264.848 24.6 264.766C24.5147 264.68 24.4561 264.58 24.4241 264.467L24.3681 264.466C24.2668 264.571 24.1468 264.665 24.0081 264.748C23.8748 264.831 23.7175 264.892 23.5362 264.932C23.3602 264.977 23.1576 264.997 22.9283 264.993ZM23.4162 264.098C23.5442 264.1 23.6615 264.083 23.7682 264.048C23.8748 264.012 23.9655 263.963 24.0401 263.901C24.1201 263.833 24.1814 263.751 24.2241 263.656C24.2721 263.561 24.2961 263.457 24.2961 263.345V263.065C23.9921 263.06 23.7308 263.077 23.5122 263.115C23.2936 263.154 23.1256 263.218 23.0083 263.307C22.891 263.395 22.8323 263.509 22.8323 263.648C22.8323 263.749 22.8563 263.835 22.9043 263.905C22.9576 263.97 23.027 264.019 23.1123 264.053C23.1976 264.081 23.2989 264.096 23.4162 264.098ZM28.4891 265.09C28.2118 265.086 27.9506 265.052 27.7053 264.989C27.4653 264.926 27.252 264.837 27.0654 264.722C26.8841 264.606 26.7401 264.465 26.6334 264.298C26.5321 264.131 26.4814 263.938 26.4814 263.719C26.4814 263.698 26.4814 263.679 26.4814 263.663C26.4814 263.642 26.4841 263.623 26.4894 263.607L27.7293 263.629C27.7293 263.64 27.7293 263.653 27.7293 263.669C27.7293 263.68 27.7293 263.69 27.7293 263.701C27.7346 263.819 27.7719 263.918 27.8412 263.999C27.9159 264.075 28.0119 264.133 28.1292 264.172C28.2465 264.206 28.3745 264.224 28.5131 264.227C28.6145 264.229 28.7211 264.22 28.8331 264.2C28.9504 264.181 29.0491 264.145 29.129 264.094C29.209 264.042 29.249 263.965 29.249 263.864C29.249 263.752 29.1984 263.665 29.097 263.605C29.0011 263.545 28.8704 263.494 28.7051 263.454C28.5451 263.409 28.3718 263.366 28.1852 263.325C27.9985 263.279 27.8092 263.228 27.6173 263.171C27.4306 263.115 27.2573 263.04 27.0974 262.946C26.9427 262.847 26.8174 262.723 26.7214 262.572C26.6254 262.42 26.5774 262.23 26.5774 262.001C26.5774 261.756 26.6281 261.549 26.7294 261.38C26.8361 261.206 26.98 261.067 27.1613 260.963C27.3426 260.86 27.5506 260.786 27.7852 260.742C28.0252 260.698 28.2785 260.679 28.5451 260.683C28.7904 260.688 29.0224 260.716 29.241 260.767C29.465 260.819 29.665 260.898 29.8409 261.002C30.0222 261.101 30.1636 261.229 30.2649 261.385C30.3662 261.536 30.4168 261.713 30.4168 261.916C30.4168 261.943 30.4142 261.972 30.4088 262.004C30.4088 262.031 30.4088 262.049 30.4088 262.06L29.177 262.038V261.974C29.177 261.884 29.1477 261.809 29.089 261.749C29.0304 261.689 28.9504 261.642 28.8491 261.609C28.7478 261.57 28.6358 261.549 28.5131 261.547C28.4331 261.545 28.3532 261.552 28.2732 261.567C28.1985 261.576 28.1292 261.593 28.0652 261.619C28.0012 261.639 27.9479 261.67 27.9052 261.712C27.8679 261.754 27.8492 261.807 27.8492 261.871C27.8492 261.951 27.8839 262.018 27.9532 262.073C28.0225 262.122 28.1159 262.164 28.2332 262.198C28.3558 262.232 28.4891 262.269 28.6331 262.309C28.8304 262.355 29.0384 262.404 29.257 262.456C29.4757 262.502 29.681 262.57 29.8729 262.659C30.0702 262.742 30.2275 262.867 30.3449 263.035C30.4675 263.197 30.5288 263.419 30.5288 263.702C30.5288 263.969 30.4755 264.194 30.3689 264.379C30.2622 264.559 30.1156 264.703 29.9289 264.811C29.7423 264.915 29.5263 264.988 29.281 265.032C29.0357 265.076 28.7718 265.095 28.4891 265.09ZM32.7933 265.165C32.5213 265.161 32.2894 265.117 32.0974 265.033C31.9108 264.945 31.7695 264.817 31.6735 264.65C31.5828 264.483 31.5375 264.282 31.5375 264.048V261.784L30.9856 261.774V260.822L31.5775 260.832L31.8494 259.605L32.8413 259.622V260.854L33.6652 260.869V261.821L32.8413 261.806V263.75C32.8413 263.9 32.8706 264.015 32.9293 264.096C32.9879 264.177 33.0946 264.219 33.2492 264.221L33.6652 264.229V265.045C33.5958 265.065 33.5079 265.085 33.4012 265.104C33.2999 265.129 33.1959 265.146 33.0893 265.155C32.9826 265.163 32.8839 265.167 32.7933 265.165Z" fill="#4C443A"/>
<path d="M17.9757 220.306C17.7037 220.311 17.4718 220.275 17.2798 220.198C17.0932 220.116 16.9519 219.993 16.8559 219.829C16.7652 219.666 16.7199 219.466 16.7199 219.232V216.968L16.168 216.977V216.025L16.7599 216.015L17.0318 214.778L18.0237 214.761V215.993L18.8476 215.979V216.931L18.0237 216.945V218.889C18.0237 219.038 18.053 219.152 18.1117 219.231C18.1703 219.31 18.277 219.349 18.4316 219.346L18.8476 219.339V220.155C18.7782 220.177 18.6903 220.2 18.5836 220.223C18.4823 220.252 18.3783 220.272 18.2717 220.285C18.165 220.297 18.0664 220.304 17.9757 220.306ZM19.5736 220.182V214.39L20.8854 214.367V216.399L20.9414 216.398C21.032 216.284 21.1413 216.187 21.2693 216.104C21.4026 216.017 21.5493 215.95 21.7093 215.905C21.8692 215.854 22.0345 215.827 22.2052 215.824C22.5091 215.819 22.7651 215.87 22.9731 215.979C23.1864 216.087 23.349 216.252 23.461 216.474C23.573 216.696 23.629 216.98 23.629 217.327V220.111L22.3172 220.134V217.534C22.3172 217.417 22.3012 217.318 22.2692 217.239C22.2425 217.154 22.2025 217.083 22.1492 217.025C22.0959 216.967 22.0292 216.926 21.9492 216.9C21.8692 216.875 21.7786 216.863 21.6773 216.865C21.5226 216.868 21.3866 216.908 21.2693 216.984C21.152 217.056 21.0587 217.153 20.9894 217.277C20.92 217.396 20.8854 217.535 20.8854 217.695V220.159L19.5736 220.182ZM26.6677 220.154C26.1878 220.162 25.7799 220.092 25.4439 219.943C25.108 219.789 24.8494 219.551 24.6681 219.229C24.4921 218.907 24.4041 218.492 24.4041 217.986C24.4041 217.49 24.4921 217.077 24.6681 216.749C24.844 216.421 25.0973 216.174 25.4279 216.008C25.7586 215.842 26.1558 215.755 26.6198 215.747C27.0784 215.739 27.465 215.81 27.7796 215.959C28.0995 216.108 28.3422 216.341 28.5075 216.658C28.6728 216.975 28.7554 217.387 28.7554 217.894V218.174L25.7319 218.226C25.7319 218.45 25.7639 218.639 25.8279 218.793C25.8919 218.946 25.9905 219.062 26.1238 219.14C26.2571 219.217 26.4358 219.254 26.6598 219.25C26.7931 219.248 26.9104 219.23 27.0117 219.196C27.113 219.162 27.1983 219.116 27.2677 219.056C27.337 218.99 27.3903 218.915 27.4276 218.829C27.465 218.743 27.4836 218.647 27.4836 218.54L28.7554 218.518C28.7554 218.774 28.7074 219.004 28.6115 219.208C28.5208 219.407 28.3848 219.577 28.2035 219.719C28.0222 219.856 27.8009 219.961 27.5396 220.035C27.2837 220.109 26.993 220.148 26.6677 220.154ZM25.7399 217.498L27.4196 217.469C27.4196 217.33 27.401 217.211 27.3636 217.11C27.3316 217.004 27.281 216.917 27.2117 216.849C27.1477 216.78 27.0677 216.731 26.9717 216.701C26.8811 216.665 26.7744 216.648 26.6518 216.65C26.4598 216.654 26.2998 216.689 26.1718 216.755C26.0438 216.821 25.9452 216.916 25.8759 217.04C25.8065 217.164 25.7612 217.317 25.7399 217.498Z" fill="#4C443A"/>
<path d="M107.426 40.5051L105.272 37.1522L106.985 37.3021L113.252 41.0148L111.73 40.8816L110.674 40.2411L108.49 40.05L108.892 40.6334L107.426 40.5051ZM108.011 39.391L109.502 39.5213L108.223 38.7415C108.156 38.702 108.075 38.6534 107.977 38.5957C107.881 38.5351 107.781 38.4726 107.675 38.4081C107.571 38.3406 107.467 38.2732 107.363 38.2057C107.259 38.1382 107.165 38.0793 107.081 38.029L107.025 38.0241C107.081 38.0874 107.137 38.1583 107.193 38.2369C107.254 38.3159 107.312 38.3947 107.368 38.4733C107.428 38.5523 107.48 38.6213 107.521 38.6802L108.011 39.391ZM113.906 41.072L109.696 37.5393L111.122 37.6641L114.432 40.4409L117.213 40.6842L118.114 41.4402L113.906 41.072ZM119.039 41.5211L113.45 37.8677L114.948 37.9988L117.83 39.9137C117.877 39.9455 117.944 39.9912 118.029 40.0509C118.115 40.1106 118.204 40.1737 118.298 40.2402C118.397 40.3072 118.487 40.3688 118.568 40.4251L118.6 40.4279C118.57 40.3945 118.533 40.356 118.491 40.3124C118.444 40.2653 118.4 40.22 118.357 40.1763C118.316 40.1297 118.276 40.0863 118.238 40.0461C118.205 40.0064 118.172 39.9713 118.141 39.9409L116.558 38.1396L118.112 38.2756L120.97 40.1884C121.027 40.2241 121.098 40.2718 121.183 40.3315C121.269 40.3911 121.358 40.4542 121.452 40.5208C121.551 40.5878 121.639 40.6477 121.716 40.7005L121.748 40.7033C121.714 40.6665 121.677 40.628 121.639 40.5878C121.602 40.5446 121.562 40.5012 121.519 40.4576C121.478 40.411 121.438 40.3676 121.4 40.3274C121.367 40.2876 121.335 40.2511 121.305 40.2177L119.738 38.4178L121.141 38.5405L123.972 41.9527L122.378 41.8132L119.348 39.7978C119.28 39.7489 119.199 39.6926 119.104 39.6291C119.009 39.5655 118.915 39.5019 118.82 39.4384C118.73 39.3753 118.652 39.3192 118.584 39.2703L118.552 39.2675C118.599 39.3146 118.651 39.3683 118.708 39.4286C118.766 39.4889 118.821 39.549 118.873 39.6088C118.931 39.6692 118.98 39.7226 119.021 39.7692L120.657 41.6626L119.039 41.5211ZM125.124 42.0535L122.97 38.7006L124.684 38.8505L130.95 42.5632L129.428 42.43L128.372 41.7895L126.188 41.5984L126.59 42.1818L125.124 42.0535ZM125.709 40.9393L127.2 41.0697L125.921 40.2899C125.854 40.2503 125.773 40.2017 125.675 40.1441C125.579 40.0835 125.479 40.0209 125.373 39.9564C125.269 39.889 125.165 39.8215 125.061 39.7541C124.957 39.6866 124.863 39.6277 124.779 39.5774L124.723 39.5725C124.779 39.6358 124.835 39.7067 124.891 39.7853C124.952 39.8643 125.01 39.9431 125.066 40.0216C125.126 40.1007 125.178 40.1696 125.219 40.2286L125.709 40.9393ZM132.529 42.7013L130.862 41.3026L126.175 38.981L127.825 39.1253L130.627 40.5543L130.667 40.5578L130.311 39.3429L131.873 39.4795L132.297 41.4281L133.964 42.8268L132.529 42.7013ZM138.696 43.2962C138.351 43.266 138.002 43.217 137.651 43.1494C137.303 43.0852 136.959 42.9983 136.619 42.8887C136.284 42.7796 135.965 42.6472 135.66 42.4916C135.352 42.3326 135.071 42.1468 134.818 41.9342C134.801 41.9205 134.783 41.9051 134.762 41.888C134.742 41.8708 134.728 41.8573 134.721 41.8475L136.1 41.9681C136.112 41.9784 136.126 41.9919 136.141 42.0086C136.157 42.0223 136.172 42.0343 136.184 42.0446C136.315 42.1543 136.464 42.2471 136.63 42.3231C136.798 42.3962 136.98 42.4551 137.176 42.4999C137.368 42.5413 137.571 42.5712 137.783 42.5898C137.9 42.6001 138.005 42.6062 138.098 42.6081C138.191 42.6101 138.267 42.606 138.326 42.5959C138.385 42.5857 138.43 42.5712 138.46 42.5523C138.491 42.5304 138.499 42.5035 138.485 42.4716C138.472 42.4366 138.436 42.3952 138.379 42.3472C138.285 42.2683 138.16 42.199 138.003 42.1392C137.851 42.0799 137.675 42.0261 137.475 41.9779C137.28 41.9301 137.066 41.8822 136.833 41.8342C136.599 41.7861 136.356 41.7357 136.103 41.6828C135.849 41.6299 135.594 41.5692 135.336 41.5005C135.078 41.4319 134.822 41.3512 134.569 41.2584C134.321 41.1661 134.08 41.0575 133.845 40.9325C133.612 40.8047 133.395 40.6567 133.195 40.4887C132.974 40.3036 132.845 40.1495 132.808 40.0265C132.767 39.9001 132.802 39.8033 132.912 39.7362C133.028 39.6696 133.204 39.6297 133.44 39.6166C133.673 39.6001 133.949 39.6058 134.267 39.6337C134.581 39.6611 134.898 39.7073 135.218 39.7721C135.543 39.8374 135.865 39.9239 136.184 40.0317C136.498 40.136 136.794 40.2601 137.07 40.404C137.348 40.545 137.599 40.7083 137.825 40.8938L137.899 40.9555L136.528 40.8356L136.485 40.7996C136.391 40.7208 136.275 40.6492 136.136 40.5849C135.999 40.5176 135.843 40.461 135.67 40.4151C135.492 40.3658 135.305 40.3325 135.108 40.3153C134.912 40.2981 134.759 40.2954 134.649 40.3074C134.545 40.3197 134.482 40.345 134.461 40.383C134.445 40.4215 134.474 40.4717 134.547 40.5334C134.637 40.6088 134.756 40.6744 134.903 40.7303C135.056 40.7867 135.233 40.839 135.433 40.8872C135.633 40.9354 135.85 40.9836 136.083 41.0316C136.313 41.0763 136.551 41.1248 136.799 41.1772C137.049 41.2266 137.302 41.2857 137.56 41.3543C137.814 41.4195 138.067 41.4985 138.321 41.5913C138.57 41.6806 138.807 41.7858 139.032 41.9069C139.263 42.0284 139.474 42.1697 139.666 42.3308C140.001 42.6119 140.167 42.8291 140.164 42.9824C140.167 43.1361 140.034 43.2366 139.767 43.2839C139.505 43.3316 139.148 43.3357 138.696 43.2962ZM143.418 43.654L139.208 40.1212L143.408 40.4887L144.266 41.2086L141.493 40.966L142.4 41.727L144.838 41.9404L145.678 42.6449L143.239 42.4315L144.845 43.7788L143.418 43.654ZM148.524 44.1007L144.314 40.5679L147.494 40.8461C147.897 40.8814 148.294 40.9607 148.683 41.0838C149.069 41.2035 149.43 41.3549 149.767 41.5379C150.105 41.718 150.399 41.9125 150.648 42.1217C150.918 42.3479 151.077 42.543 151.124 42.7068C151.173 42.8677 151.111 42.9851 150.937 43.059L153.704 44.5539L152.11 44.4144L149.719 43.0905L148.467 42.981L149.95 44.2255L148.524 44.1007ZM147.652 42.2971L149.127 42.4261C149.323 42.4433 149.431 42.4159 149.45 42.3438C149.47 42.2688 149.396 42.161 149.229 42.0205C149.118 41.9279 148.998 41.8467 148.867 41.777C148.736 41.7072 148.603 41.651 148.466 41.6083C148.326 41.5622 148.186 41.5332 148.048 41.5211L146.574 41.3921L147.652 42.2971ZM154.517 44.625L150.307 41.0922L154.825 41.4876L155.683 42.2075L152.591 41.937L153.382 42.6003L156.084 42.8367L156.923 43.5412L154.221 43.3048L155.086 44.0299L158.233 44.3053L159.091 45.0252L154.517 44.625ZM162.418 45.3716C162.073 45.3414 161.724 45.2924 161.373 45.2248C161.025 45.1606 160.681 45.0737 160.341 44.9641C160.006 44.855 159.687 44.7226 159.382 44.567C159.074 44.408 158.793 44.2222 158.539 44.0096C158.523 43.9959 158.505 43.9805 158.484 43.9634C158.464 43.9462 158.45 43.9327 158.443 43.9229L159.822 44.0435C159.834 44.0538 159.848 44.0673 159.863 44.084C159.879 44.0977 159.894 44.1097 159.906 44.12C160.037 44.2297 160.185 44.3225 160.352 44.3985C160.52 44.4716 160.702 44.5305 160.898 44.5753C161.09 44.6167 161.293 44.6466 161.505 44.6652C161.622 44.6755 161.727 44.6816 161.82 44.6835C161.912 44.6855 161.988 44.6814 162.048 44.6713C162.107 44.6611 162.152 44.6466 162.181 44.6277C162.212 44.6058 162.221 44.5789 162.207 44.547C162.194 44.512 162.158 44.4706 162.101 44.4226C162.007 44.3437 161.882 44.2744 161.725 44.2146C161.573 44.1553 161.397 44.1015 161.197 44.0533C161.002 44.0055 160.788 43.9576 160.555 43.9096C160.321 43.8615 160.078 43.8111 159.825 43.7582C159.571 43.7053 159.316 43.6446 159.058 43.5759C158.8 43.5073 158.544 43.4266 158.291 43.3338C158.043 43.2415 157.802 43.1329 157.567 43.0079C157.334 42.8801 157.117 42.7321 156.917 42.5641C156.696 42.379 156.567 42.2249 156.53 42.1019C156.489 41.9755 156.523 41.8787 156.634 41.8116C156.749 41.745 156.926 41.7051 157.162 41.692C157.395 41.6755 157.671 41.6812 157.989 41.7091C158.303 41.7365 158.62 41.7827 158.94 41.8475C159.265 41.9128 159.587 41.9993 159.906 42.1071C160.22 42.2114 160.516 42.3355 160.792 42.4794C161.069 42.6204 161.321 42.7836 161.547 42.9692L161.621 43.0309L160.25 42.911L160.207 42.875C160.113 42.7962 159.997 42.7246 159.858 42.6603C159.721 42.593 159.565 42.5364 159.392 42.4905C159.214 42.4411 159.027 42.4079 158.83 42.3907C158.634 42.3735 158.481 42.3708 158.371 42.3828C158.267 42.3951 158.204 42.4203 158.183 42.4584C158.167 42.4969 158.196 42.547 158.269 42.6088C158.359 42.6842 158.478 42.7498 158.625 42.8057C158.778 42.8621 158.955 42.9144 159.155 42.9626C159.355 43.0108 159.572 43.059 159.805 43.107C160.034 43.1517 160.273 43.2002 160.521 43.2526C160.771 43.302 161.024 43.3611 161.282 43.4297C161.536 43.4949 161.789 43.5739 162.043 43.6667C162.292 43.756 162.529 43.8612 162.754 43.9823C162.985 44.1038 163.196 44.2451 163.388 44.4062C163.723 44.6873 163.889 44.9045 163.886 45.0578C163.889 45.2115 163.756 45.312 163.489 45.3593C163.227 45.407 162.87 45.4111 162.418 45.3716ZM165.63 45.5973L161.42 42.0645L162.847 42.1894L164.465 43.5469L166.688 43.7415L165.07 42.3839L166.497 42.5087L170.707 46.0415L169.28 45.9166L167.583 44.4922L165.359 44.2977L167.057 45.7221L165.63 45.5973Z" fill="#8A8070"/>
<rect x="0.498782" y="0.465122" width="143.352" height="20" rx="10" transform="matrix(0.997564 -0.0697565 0 1 74.9366 437.965)" stroke="#211D18"/>
<path d="M85.3411 450.703V449.807L86.6499 449.715V446.475L85.3332 446.567V445.895C85.5087 445.867 85.7109 445.813 85.9397 445.733C86.1738 445.647 86.4079 445.548 86.642 445.436C86.8761 445.318 87.0862 445.197 87.2724 445.072L87.7672 445.037V449.637L88.9882 449.552V450.448L85.3411 450.703ZM89.7041 450.398V450.11C89.7041 449.87 89.7467 449.648 89.8318 449.445C89.9169 449.241 90.034 449.052 90.1829 448.876C90.3319 448.7 90.4968 448.532 90.6777 448.37C90.8586 448.208 91.0448 448.051 91.2364 447.898C91.4545 447.718 91.6593 447.541 91.8509 447.368C92.0477 447.194 92.2073 447.012 92.3297 446.822C92.4521 446.627 92.5132 446.417 92.5132 446.193C92.5132 446.087 92.4866 445.982 92.4334 445.879C92.3802 445.776 92.2951 445.694 92.1781 445.633C92.0663 445.566 91.9147 445.539 91.7232 445.552C91.5263 445.566 91.3641 445.612 91.2364 445.69C91.1087 445.763 91.0103 445.864 90.9411 445.991C90.8772 446.113 90.8453 446.262 90.8453 446.438V446.726L89.7759 446.801C89.7706 446.774 89.7653 446.737 89.76 446.69C89.7547 446.642 89.752 446.584 89.752 446.514C89.752 446.125 89.8398 445.799 90.0153 445.536C90.1962 445.273 90.4383 445.069 90.7416 444.925C91.0502 444.781 91.3986 444.695 91.787 444.668C92.1382 444.643 92.4308 444.674 92.6649 444.759C92.9043 444.838 93.0958 444.955 93.2395 445.11C93.3831 445.26 93.4842 445.429 93.5427 445.617C93.6066 445.799 93.6385 445.979 93.6385 446.155C93.6385 446.405 93.5933 446.638 93.5028 446.852C93.4124 447.066 93.29 447.27 93.1357 447.462C92.9814 447.654 92.7979 447.843 92.5851 448.028C92.3723 448.208 92.1461 448.39 91.9067 448.572C91.7844 448.666 91.6673 448.756 91.5556 448.844C91.4492 448.932 91.3561 449.015 91.2763 449.096C91.2018 449.17 91.1433 449.244 91.1007 449.316L93.6784 449.136V450.12L89.7041 450.398ZM98.7779 449.859C98.198 449.9 97.6979 449.831 97.2776 449.652C96.8572 449.473 96.5354 449.181 96.3119 448.776C96.0885 448.37 95.9767 447.85 95.9767 447.215C95.9767 446.57 96.0885 446.031 96.3119 445.6C96.5354 445.163 96.8572 444.828 97.2776 444.596C97.6979 444.359 98.198 444.22 98.7779 444.179C99.3684 444.138 99.8712 444.207 100.286 444.386C100.707 444.559 101.028 444.848 101.252 445.254C101.475 445.655 101.587 446.177 101.587 446.823C101.587 447.457 101.475 447.993 101.252 448.43C101.028 448.867 100.707 449.204 100.286 449.442C99.8712 449.679 99.3684 449.818 98.7779 449.859ZM98.7779 448.883C99.0386 448.865 99.2674 448.812 99.4642 448.723C99.6611 448.635 99.826 448.511 99.959 448.353C100.092 448.194 100.193 448.006 100.262 447.787C100.331 447.564 100.366 447.313 100.366 447.036V446.788C100.366 446.505 100.331 446.257 100.262 446.043C100.193 445.83 100.092 445.655 99.959 445.521C99.826 445.381 99.6611 445.28 99.4642 445.219C99.2674 445.158 99.0386 445.137 98.7779 445.155C98.5225 445.173 98.2964 445.226 98.0995 445.315C97.9027 445.403 97.7378 445.527 97.6048 445.685C97.4717 445.838 97.3707 446.027 97.3015 446.25C97.2376 446.474 97.2057 446.726 97.2057 447.009V447.257C97.2057 447.534 97.2376 447.78 97.3015 447.994C97.3707 448.203 97.4717 448.377 97.6048 448.517C97.7378 448.657 97.9027 448.758 98.0995 448.819C98.2964 448.879 98.5225 448.901 98.7779 448.883ZM102.091 449.531V449.019L104.932 444.821L102.291 445.005V444.029L106.728 443.719V444.231L103.887 448.422L106.792 448.219V449.203L102.091 449.531Z" fill="#4C443A"/>
<circle cx="1.5" cy="1.5" r="1.5" transform="matrix(0.997564 -0.0697565 0 1 112.681 444.791)" fill="#211D18"/>
<path d="M123.823 448.108C123.376 448.139 123.001 448.096 122.698 447.979C122.395 447.861 122.166 447.685 122.012 447.451C121.857 447.216 121.78 446.939 121.78 446.619V446.483L122.858 446.407V446.559C122.858 446.794 122.935 446.973 123.089 447.095C123.249 447.217 123.478 447.268 123.775 447.247C124.063 447.227 124.286 447.145 124.446 447C124.605 446.856 124.685 446.645 124.685 446.368C124.685 446.16 124.643 446.003 124.558 445.897C124.472 445.79 124.361 445.718 124.222 445.68C124.089 445.641 123.943 445.627 123.783 445.639L123.297 445.673V444.833L123.775 444.799C123.924 444.789 124.057 444.753 124.174 444.691C124.297 444.624 124.393 444.532 124.462 444.415C124.536 444.298 124.574 444.151 124.574 443.975C124.574 443.81 124.539 443.676 124.47 443.575C124.406 443.467 124.313 443.391 124.19 443.346C124.073 443.301 123.938 443.284 123.783 443.295C123.629 443.305 123.488 443.342 123.36 443.404C123.238 443.466 123.142 443.553 123.073 443.664C123.004 443.776 122.969 443.912 122.969 444.072V444.192L121.908 444.266V444.066C121.908 443.767 121.985 443.5 122.139 443.266C122.299 443.025 122.523 442.833 122.81 442.691C123.097 442.543 123.43 442.455 123.807 442.429C124.185 442.403 124.515 442.438 124.797 442.536C125.084 442.633 125.305 442.791 125.459 443.009C125.619 443.222 125.699 443.483 125.699 443.793C125.699 444.001 125.659 444.188 125.579 444.353C125.505 444.518 125.403 444.661 125.276 444.782C125.148 444.898 125.002 444.999 124.837 445.085V445.117C125.124 445.182 125.358 445.323 125.539 445.54C125.725 445.751 125.818 446.035 125.818 446.392C125.813 446.713 125.728 446.996 125.563 447.242C125.403 447.488 125.175 447.688 124.877 447.842C124.579 447.991 124.228 448.08 123.823 448.108ZM128.881 447.658V446.458L126.415 446.631V445.743C126.622 445.397 126.816 445.035 126.997 444.654C127.178 444.273 127.346 443.872 127.5 443.451C127.66 443.029 127.793 442.593 127.899 442.143L129.04 442.063C128.982 442.323 128.899 442.598 128.793 442.888C128.692 443.178 128.575 443.466 128.442 443.753C128.309 444.04 128.173 444.31 128.035 444.565C127.902 444.815 127.774 445.037 127.652 445.232C127.529 445.427 127.425 445.576 127.34 445.678L128.881 445.57V444.242C128.934 444.137 128.987 444.024 129.04 443.903C129.099 443.776 129.155 443.65 129.208 443.523C129.261 443.392 129.309 443.263 129.351 443.137C129.399 443.011 129.437 442.894 129.463 442.785L129.974 442.75V445.494L130.676 445.445V446.333L129.974 446.382V447.582L128.881 447.658ZM133.323 447.444C132.993 447.467 132.703 447.439 132.453 447.36C132.203 447.277 131.993 447.131 131.823 446.924C131.658 446.712 131.533 446.427 131.448 446.071C131.368 445.714 131.328 445.271 131.328 444.743C131.328 444.21 131.368 443.762 131.448 443.399C131.533 443.03 131.658 442.728 131.823 442.492C131.993 442.257 132.203 442.082 132.453 441.968C132.703 441.855 132.993 441.787 133.323 441.764C133.658 441.74 133.948 441.768 134.193 441.847C134.438 441.926 134.643 442.071 134.808 442.284C134.978 442.496 135.103 442.78 135.183 443.138C135.268 443.489 135.31 443.931 135.31 444.465C135.31 444.993 135.268 445.441 135.183 445.81C135.103 446.178 134.978 446.48 134.808 446.716C134.643 446.946 134.438 447.12 134.193 447.239C133.948 447.352 133.658 447.42 133.323 447.444ZM133.323 446.58C133.557 446.563 133.736 446.489 133.858 446.358C133.98 446.222 134.065 446.024 134.113 445.764C134.161 445.505 134.185 445.183 134.185 444.799V444.303C134.185 443.914 134.161 443.593 134.113 443.34C134.065 443.082 133.98 442.894 133.858 442.774C133.736 442.655 133.557 442.603 133.323 442.62C133.089 442.636 132.908 442.713 132.781 442.85C132.658 442.986 132.573 443.184 132.525 443.443C132.477 443.697 132.453 444.019 132.453 444.408V444.904C132.453 445.294 132.477 445.617 132.525 445.875C132.573 446.128 132.658 446.314 132.781 446.434C132.908 446.547 133.089 446.596 133.323 446.58ZM140.354 446.952C139.492 447.012 138.827 446.829 138.359 446.403C137.896 445.972 137.665 445.271 137.665 444.3C137.665 443.655 137.776 443.116 138 442.685C138.223 442.248 138.548 441.913 138.974 441.68C139.399 441.443 139.91 441.303 140.506 441.261C140.862 441.236 141.197 441.253 141.511 441.311C141.825 441.369 142.102 441.472 142.341 441.621C142.586 441.769 142.775 441.964 142.908 442.205C143.046 442.441 143.115 442.729 143.115 443.071L141.91 443.155C141.91 442.99 141.873 442.846 141.799 442.723C141.729 442.6 141.631 442.5 141.503 442.424C141.376 442.347 141.229 442.293 141.064 442.262C140.899 442.231 140.727 442.222 140.546 442.235C140.269 442.254 140.027 442.308 139.819 442.397C139.612 442.481 139.439 442.603 139.301 442.762C139.168 442.915 139.067 443.103 138.997 443.327C138.928 443.55 138.894 443.806 138.894 444.094V444.334C138.894 444.734 138.952 445.058 139.069 445.306C139.186 445.554 139.362 445.733 139.596 445.845C139.83 445.951 140.12 445.992 140.466 445.968C140.753 445.948 141.006 445.888 141.224 445.787C141.447 445.681 141.62 445.541 141.743 445.367C141.87 445.193 141.934 444.985 141.934 444.745V444.689L140.298 444.804V443.892L143.115 443.695V446.663L142.333 446.718L142.23 446.133C142.07 446.299 141.897 446.439 141.711 446.553C141.53 446.667 141.328 446.756 141.104 446.819C140.881 446.888 140.631 446.933 140.354 446.952Z" fill="#4C443A"/>
<circle cx="1.5" cy="1.5" r="1.5" transform="matrix(0.997564 -0.0697565 0 1 149.411 442.223)" fill="#211D18"/>
<path d="M157.792 445.637L156.355 440.249L157.616 440.161L158.414 443.377C158.43 443.424 158.446 443.495 158.462 443.59C158.478 443.679 158.494 443.774 158.51 443.874C158.526 443.975 158.539 444.064 158.55 444.144L158.59 444.141C158.6 444.081 158.608 444.014 158.614 443.939C158.624 443.864 158.635 443.791 158.646 443.721C158.661 443.645 158.675 443.575 158.685 443.51C158.701 443.445 158.712 443.394 158.717 443.356L159.46 440.032L160.88 439.933L161.638 443.152C161.654 443.204 161.67 443.275 161.686 443.364C161.702 443.454 161.718 443.549 161.734 443.649C161.75 443.749 161.763 443.839 161.774 443.918L161.814 443.915C161.824 443.856 161.835 443.791 161.846 443.721C161.862 443.651 161.875 443.58 161.886 443.51C161.902 443.435 161.918 443.364 161.933 443.299C161.949 443.234 161.963 443.177 161.973 443.128L162.763 439.801L163.905 439.721L162.46 445.31L161.104 445.405L160.297 442.085C160.282 442.012 160.263 441.928 160.242 441.833C160.226 441.733 160.21 441.635 160.194 441.541C160.178 441.446 160.164 441.361 160.154 441.287L160.122 441.29C160.111 441.365 160.098 441.454 160.082 441.556C160.071 441.658 160.055 441.758 160.034 441.856C160.018 441.953 160.002 442.037 159.986 442.107L159.188 445.539L157.792 445.637ZM164.582 445.162V439.674L165.771 439.591V441.767L168.197 441.597V439.421L169.386 439.338V444.826L168.197 444.909V442.605L165.771 442.775V445.079L164.582 445.162ZM173.152 444.658C172.572 444.699 172.072 444.63 171.652 444.451C171.232 444.273 170.91 443.981 170.686 443.575C170.463 443.169 170.351 442.649 170.351 442.014C170.351 441.369 170.463 440.831 170.686 440.399C170.91 439.962 171.232 439.627 171.652 439.395C172.072 439.158 172.572 439.019 173.152 438.978C173.743 438.937 174.246 439.006 174.661 439.185C175.081 439.358 175.403 439.648 175.626 440.053C175.85 440.454 175.961 440.977 175.961 441.622C175.961 442.257 175.85 442.792 175.626 443.229C175.403 443.666 175.081 444.004 174.661 444.241C174.246 444.478 173.743 444.617 173.152 444.658ZM173.152 443.682C173.413 443.664 173.642 443.611 173.839 443.522C174.035 443.434 174.2 443.31 174.333 443.152C174.466 442.993 174.567 442.805 174.637 442.587C174.706 442.363 174.74 442.113 174.74 441.835V441.587C174.74 441.305 174.706 441.056 174.637 440.843C174.567 440.629 174.466 440.455 174.333 440.32C174.2 440.18 174.035 440.079 173.839 440.018C173.642 439.958 173.413 439.936 173.152 439.954C172.897 439.972 172.671 440.025 172.474 440.114C172.277 440.202 172.112 440.326 171.979 440.484C171.846 440.638 171.745 440.826 171.676 441.05C171.612 441.273 171.58 441.526 171.58 441.808V442.056C171.58 442.334 171.612 442.579 171.676 442.794C171.745 443.002 171.846 443.176 171.979 443.316C172.112 443.457 172.277 443.557 172.474 443.618C172.671 443.679 172.897 443.7 173.152 443.682ZM176.927 444.299V438.811L178.116 438.727V443.199L180.877 443.006V444.022L176.927 444.299ZM181.642 443.969V438.481L186.015 438.175V439.151L182.839 439.373V440.597L185.648 440.401V441.369L182.839 441.565V442.901L186.063 442.676V443.66L181.642 443.969ZM188.656 443.478V437.99L191.784 437.772C192.072 437.751 192.33 437.789 192.558 437.885C192.793 437.981 192.976 438.126 193.109 438.319C193.242 438.512 193.309 438.745 193.309 439.017C193.309 439.236 193.269 439.433 193.189 439.609C193.109 439.786 193 439.935 192.862 440.056C192.729 440.178 192.577 440.271 192.407 440.336V440.368C192.609 440.397 192.787 440.464 192.942 440.571C193.101 440.677 193.226 440.82 193.317 441C193.412 441.175 193.46 441.388 193.46 441.638C193.46 441.969 193.383 442.252 193.229 442.487C193.08 442.721 192.88 442.903 192.63 443.032C192.38 443.162 192.101 443.237 191.792 443.259L188.656 443.478ZM189.845 442.419L191.561 442.299C191.758 442.285 191.917 442.218 192.04 442.098C192.167 441.977 192.231 441.799 192.231 441.564C192.231 441.426 192.205 441.308 192.151 441.21C192.098 441.112 192.018 441.041 191.912 440.995C191.806 440.943 191.67 440.924 191.505 440.935L189.845 441.051V442.419ZM189.845 440.123L191.425 440.013C191.569 440.003 191.689 439.968 191.784 439.908C191.885 439.842 191.96 439.762 192.008 439.668C192.061 439.568 192.088 439.457 192.088 439.334C192.088 439.126 192.029 438.973 191.912 438.875C191.8 438.776 191.651 438.733 191.465 438.746L189.845 438.859V440.123ZM194.415 443.076V437.588L198.789 437.282V438.258L195.612 438.48V439.704L198.422 439.507V440.475L195.612 440.672V442.008L198.837 441.782V442.766L194.415 443.076ZM199.304 442.734L201.411 437.098L202.88 436.996L204.986 442.336L203.702 442.426L203.311 441.374L200.924 441.54L200.533 442.648L199.304 442.734ZM201.268 440.556L202.967 440.438L202.481 439.12C202.459 439.062 202.433 438.995 202.401 438.917C202.374 438.834 202.345 438.742 202.313 438.643C202.281 438.544 202.249 438.448 202.217 438.354C202.191 438.255 202.164 438.166 202.137 438.088L202.09 438.091C202.063 438.194 202.028 438.317 201.986 438.458C201.943 438.595 201.901 438.728 201.858 438.859C201.816 438.985 201.781 439.089 201.754 439.17L201.268 440.556ZM205.638 442.291V436.803L206.731 436.726L208.934 439.532C208.966 439.567 209.006 439.618 209.054 439.684C209.101 439.745 209.147 439.805 209.189 439.867C209.232 439.928 209.261 439.976 209.277 440.012L209.317 440.01C209.317 439.919 209.317 439.831 209.317 439.746C209.317 439.655 209.317 439.575 209.317 439.506V436.546L210.442 436.467V441.955L209.349 442.031L207.098 439.157C207.045 439.086 206.989 439.007 206.931 438.92C206.872 438.834 206.83 438.767 206.803 438.721L206.763 438.724C206.763 438.804 206.763 438.884 206.763 438.964C206.763 439.039 206.763 439.111 206.763 439.18V442.212L205.638 442.291Z" fill="#4C443A"/>
<path d="M4.13191 442.377C3.93045 442.316 3.75778 442.232 3.6139 442.127C3.47252 442.021 3.36249 441.893 3.2838 441.744C3.20765 441.596 3.16791 441.426 3.16456 441.234L3.16239 441.11L3.72088 441.281L3.72304 441.405C3.72518 441.528 3.75866 441.629 3.82349 441.71C3.89081 441.789 3.98951 441.848 4.11956 441.888C4.24452 441.926 4.33813 441.913 4.4004 441.847C4.46261 441.778 4.4923 441.663 4.48947 441.5L4.45805 439.7L5.03183 439.876L5.06325 441.676C5.06711 441.897 5.03337 442.071 4.96202 442.198C4.89063 442.322 4.78415 442.398 4.6426 442.426C4.5036 442.455 4.33337 442.439 4.13191 442.377ZM6.63566 443.143C6.43165 443.08 6.26869 442.972 6.14679 442.818C6.02488 442.664 5.96165 442.457 5.95709 442.195L5.93252 440.788L6.46422 440.95L6.48719 442.266C6.4884 442.335 6.49707 442.396 6.51321 442.449C6.5293 442.499 6.55163 442.543 6.5802 442.581C6.61131 442.62 6.64866 442.652 6.69224 442.679C6.73583 442.705 6.7844 442.727 6.83795 442.743C6.91701 442.767 6.98806 442.769 7.05112 442.749C7.11417 442.728 7.16295 442.689 7.19744 442.63C7.23188 442.569 7.24834 442.495 7.2468 442.407L7.22544 441.183L7.75715 441.345L7.79387 443.449L7.35779 443.316L7.31451 443.016L7.28774 443.008C7.24045 443.06 7.18409 443.101 7.11867 443.131C7.0558 443.163 6.9838 443.179 6.90266 443.181C6.82157 443.185 6.73257 443.172 6.63566 443.143ZM9.48004 444.012C9.33978 443.97 9.21327 443.915 9.10051 443.849C8.98774 443.782 8.89134 443.709 8.81131 443.629C8.73123 443.546 8.66882 443.458 8.62407 443.365C8.58187 443.272 8.55989 443.176 8.55812 443.074C8.55793 443.064 8.55775 443.053 8.55756 443.042C8.55738 443.032 8.55851 443.024 8.56097 443.019L9.07355 443.176C9.07364 443.181 9.07373 443.187 9.07383 443.192C9.07392 443.197 9.07401 443.203 9.07411 443.208C9.07782 443.276 9.09918 443.336 9.13817 443.391C9.17712 443.442 9.22736 443.487 9.28889 443.524C9.35297 443.563 9.41944 443.592 9.48829 443.613C9.5495 443.632 9.60806 443.644 9.66397 443.651C9.72239 443.656 9.77045 443.648 9.80814 443.627C9.84839 443.608 9.86807 443.573 9.86718 443.522C9.86607 443.458 9.8397 443.401 9.7881 443.351C9.73904 443.301 9.67352 443.253 9.59154 443.207C9.51212 443.162 9.42499 443.111 9.33017 443.056C9.2431 443.008 9.15597 442.957 9.0688 442.904C8.98158 442.848 8.90188 442.787 8.82968 442.72C8.76004 442.653 8.70291 442.577 8.6583 442.492C8.61365 442.404 8.59034 442.304 8.58839 442.192C8.58648 442.083 8.60778 441.995 8.65228 441.929C8.69674 441.861 8.75804 441.812 8.83616 441.783C8.91683 441.754 9.01051 441.745 9.1172 441.753C9.22639 441.76 9.34347 441.783 9.46842 441.821C9.58573 441.857 9.69562 441.904 9.79809 441.962C9.90051 442.017 9.99042 442.081 10.0678 442.155C10.1452 442.227 10.2062 442.306 10.2508 442.394C10.2954 442.48 10.3185 442.567 10.3201 442.658C10.3204 442.677 10.3207 442.694 10.321 442.71C10.3213 442.726 10.3202 442.736 10.3177 442.741L9.80898 442.585L9.80842 442.553C9.80758 442.505 9.79286 442.461 9.76425 442.421C9.73559 442.377 9.69433 442.338 9.64045 442.303C9.58912 442.269 9.52648 442.24 9.45252 442.218C9.40152 442.202 9.35441 442.192 9.3112 442.187C9.27054 442.182 9.23504 442.183 9.20472 442.19C9.1744 442.196 9.15052 442.209 9.13309 442.228C9.11816 442.244 9.11098 442.269 9.11153 442.301C9.11232 442.346 9.13083 442.389 9.16704 442.429C9.20576 442.467 9.25588 442.505 9.31741 442.543C9.37894 442.58 9.44687 442.621 9.5212 442.665C9.61347 442.719 9.70956 442.775 9.80948 442.832C9.91191 442.887 10.0068 442.95 10.0943 443.019C10.1817 443.088 10.2529 443.171 10.3079 443.267C10.3628 443.361 10.3914 443.474 10.3937 443.608C10.396 443.736 10.3736 443.836 10.3267 443.909C10.2823 443.983 10.2186 444.034 10.1353 444.062C10.0521 444.089 9.9546 444.098 9.84281 444.088C9.73102 444.077 9.6101 444.052 9.48004 444.012ZM11.7739 444.714C11.6464 444.675 11.5427 444.619 11.4628 444.547C11.3829 444.475 11.3244 444.393 11.2873 444.302C11.2502 444.209 11.2307 444.113 11.229 444.014L11.2083 442.826L10.9596 442.75L10.9522 442.322L11.2199 442.404L11.3089 441.835L11.722 441.961L11.7325 442.561L12.0997 442.673L12.1072 443.101L11.74 442.989L11.7591 444.085C11.7602 444.149 11.7751 444.202 11.8038 444.245C11.8324 444.286 11.8786 444.316 11.9423 444.336L12.1297 444.393L12.1362 444.761C12.1058 444.762 12.0702 444.761 12.0295 444.756C11.9889 444.754 11.9457 444.749 11.8999 444.74C11.8541 444.734 11.8121 444.725 11.7739 444.714ZM12.9084 445.013L12.8605 442.269L14.2261 442.687C14.4148 442.744 14.5723 442.83 14.6985 442.943C14.8273 443.054 14.9247 443.185 14.9908 443.338C15.0594 443.489 15.0953 443.655 15.0984 443.837C15.1016 444.018 15.0699 444.166 15.0035 444.281C14.9395 444.394 14.8431 444.468 14.7144 444.503C14.5856 444.538 14.4269 444.526 14.2382 444.469L13.4616 444.231L13.4783 445.187L12.9084 445.013ZM13.4531 443.743L14.1531 443.957C14.273 443.994 14.3642 443.986 14.4267 443.934C14.4917 443.882 14.5231 443.792 14.5209 443.664C14.5194 443.576 14.504 443.498 14.475 443.431C14.4459 443.364 14.403 443.306 14.3464 443.257C14.2923 443.208 14.2231 443.171 14.139 443.145L13.4389 442.931L13.4531 443.743ZM15.8487 445.912L15.7982 443.02L16.3299 443.183L16.3804 446.074L15.8487 445.912ZM17.7835 446.551C17.7172 446.531 17.6457 446.501 17.5689 446.462C17.4947 446.423 17.4241 446.374 17.3571 446.313C17.29 446.25 17.2341 446.174 17.1894 446.083C17.1472 445.991 17.1251 445.883 17.1229 445.76C17.1204 445.614 17.1489 445.502 17.2084 445.424C17.2679 445.347 17.3533 445.299 17.4646 445.28C17.5784 445.259 17.7141 445.262 17.8719 445.289C18.0296 445.316 18.2041 445.359 18.3954 445.417L18.3926 445.261C18.3916 445.2 18.3804 445.144 18.3592 445.092C18.3406 445.041 18.3068 444.995 18.2579 444.954C18.2115 444.913 18.1463 444.88 18.0621 444.854C17.978 444.828 17.9093 444.818 17.8561 444.823C17.8055 444.829 17.769 444.845 17.7466 444.873C17.7268 444.899 17.7172 444.932 17.7179 444.972L17.7188 445.02L17.2024 444.862C17.1996 444.848 17.1981 444.835 17.1979 444.825C17.1977 444.811 17.1974 444.795 17.1971 444.777C17.1949 444.654 17.2288 444.56 17.2987 444.493C17.3685 444.425 17.468 444.386 17.5972 444.378C17.7264 444.37 17.8778 444.392 18.0512 444.445C18.2373 444.502 18.3933 444.575 18.5192 444.664C18.6476 444.753 18.7458 444.858 18.8138 444.976C18.8844 445.096 18.921 445.231 18.9236 445.38L18.9403 446.336C18.9411 446.384 18.9545 446.424 18.9804 446.456C19.0088 446.485 19.0396 446.505 19.0728 446.516L19.199 446.554L19.2053 446.918C19.1801 446.924 19.1408 446.925 19.0875 446.922C19.0342 446.921 18.9693 446.91 18.8928 446.886C18.8188 446.864 18.7523 446.831 18.6932 446.789C18.6368 446.751 18.5891 446.706 18.5501 446.654C18.5111 446.6 18.4835 446.541 18.4671 446.478L18.4404 446.469C18.398 446.512 18.3453 446.545 18.2823 446.568C18.2218 446.592 18.1497 446.603 18.066 446.602C17.9848 446.601 17.8907 446.584 17.7835 446.551ZM17.956 446.186C18.0274 446.208 18.091 446.217 18.1467 446.213C18.2024 446.206 18.249 446.189 18.2866 446.164C18.3242 446.136 18.3527 446.097 18.3721 446.047C18.3941 445.998 18.4045 445.941 18.4034 445.877L18.4014 445.761C18.2586 445.718 18.1312 445.689 18.0194 445.676C17.9075 445.661 17.8188 445.667 17.7534 445.695C17.6905 445.723 17.6597 445.78 17.6612 445.865C17.6621 445.913 17.6743 445.958 17.6978 446C17.7214 446.041 17.755 446.078 17.7987 446.11C17.8424 446.142 17.8948 446.167 17.956 446.186ZM19.8104 444.724L19.802 444.244L20.3337 444.407L20.3421 444.887L19.8104 444.724ZM19.8525 447.136L19.8157 445.032L20.3474 445.195L20.3842 447.298L19.8525 447.136ZM21.2548 447.565L21.2181 445.461L21.658 445.595L21.7051 445.896L21.7318 445.904C21.7765 445.849 21.8303 445.806 21.8932 445.775C21.9586 445.744 22.0319 445.728 22.113 445.727C22.1942 445.725 22.2832 445.739 22.3801 445.768C22.5127 445.809 22.6292 445.87 22.7295 445.951C22.8299 446.032 22.9078 446.135 22.9632 446.261C23.0212 446.387 23.0518 446.539 23.0548 446.715L23.0794 448.122L22.5477 447.96L22.5247 446.64C22.5235 446.573 22.5149 446.515 22.4988 446.465C22.4826 446.412 22.459 446.367 22.4279 446.328C22.3993 446.287 22.3632 446.254 22.3196 446.227C22.276 446.201 22.2275 446.179 22.1739 446.163C22.0949 446.139 22.0238 446.137 21.9607 446.157C21.8977 446.178 21.8489 446.217 21.8144 446.276C21.7799 446.334 21.7635 446.409 21.7651 446.499L21.7865 447.727L21.2548 447.565ZM25.1595 448.806C24.8866 448.723 24.6524 448.602 24.4569 448.444C24.2613 448.284 24.1107 448.082 24.005 447.841C23.9019 447.599 23.8475 447.316 23.8418 446.991C23.8334 446.511 23.9394 446.189 24.1598 446.026C24.3826 445.861 24.6994 445.841 25.1099 445.967C25.3343 446.035 25.5365 446.137 25.7164 446.271C25.8963 446.406 26.0387 446.569 26.1435 446.76C26.2508 446.952 26.3066 447.169 26.3108 447.412L25.7371 447.236C25.7348 447.108 25.7074 446.993 25.6549 446.889C25.6049 446.786 25.5336 446.698 25.441 446.625C25.3509 446.549 25.246 446.493 25.1261 446.457C24.9629 446.407 24.8283 446.399 24.7224 446.433C24.619 446.468 24.5429 446.542 24.4942 446.657C24.448 446.771 24.4265 446.921 24.4298 447.107L24.4319 447.231C24.4353 447.423 24.4636 447.592 24.5169 447.738C24.5701 447.882 24.6483 448.003 24.7515 448.101C24.8572 448.197 24.9916 448.269 25.1548 448.319C25.2823 448.358 25.3928 448.37 25.4864 448.353C25.58 448.337 25.6515 448.292 25.701 448.22C25.7504 448.147 25.774 448.047 25.7718 447.919L26.3226 448.088C26.3269 448.33 26.2794 448.516 26.1802 448.645C26.0835 448.774 25.9466 448.852 25.7695 448.877C25.5923 448.9 25.389 448.876 25.1595 448.806ZM28.0529 449.691C27.8336 449.624 27.6467 449.528 27.4924 449.404C27.338 449.277 27.2198 449.12 27.1379 448.934C27.056 448.744 27.0129 448.525 27.0085 448.277C27.0041 448.024 27.04 447.83 27.1163 447.694C27.1925 447.555 27.3064 447.471 27.4581 447.44C27.6097 447.407 27.7952 447.424 28.0145 447.491C28.2389 447.56 28.427 447.657 28.5789 447.783C28.7332 447.907 28.8514 448.062 28.9333 448.249C29.0151 448.433 29.0583 448.652 29.0627 448.905C29.067 449.153 29.0311 449.348 28.9549 449.489C28.8787 449.628 28.7648 449.713 28.6132 449.747C28.4641 449.778 28.2773 449.759 28.0529 449.691ZM28.0453 449.259C28.1627 449.295 28.2553 449.3 28.3234 449.276C28.394 449.253 28.4451 449.199 28.4766 449.116C28.5081 449.033 28.5227 448.923 28.5203 448.787L28.5187 448.691C28.5163 448.555 28.4977 448.436 28.4629 448.332C28.4281 448.229 28.3747 448.143 28.3025 448.076C28.2328 448.007 28.1393 447.955 28.022 447.919C27.9072 447.884 27.8145 447.879 27.744 447.906C27.6759 447.93 27.6261 447.984 27.5946 448.067C27.5631 448.15 27.5485 448.26 27.5509 448.396L27.5525 448.492C27.5549 448.627 27.5735 448.747 27.6083 448.851C27.6431 448.954 27.6953 449.039 27.7649 449.105C27.8371 449.173 27.9306 449.224 28.0453 449.259ZM29.9466 450.222L29.9174 448.546L29.6305 448.458L29.623 448.031L29.9099 448.118L29.9058 447.886C29.9038 447.772 29.9199 447.676 29.9541 447.599C29.9908 447.52 30.0494 447.467 30.1302 447.442C30.2109 447.416 30.3188 447.424 30.454 447.465C30.4922 447.477 30.5318 447.492 30.5727 447.509C30.6162 447.528 30.6571 447.548 30.6955 447.571C30.7365 447.591 30.7711 447.611 30.7993 447.63L30.8057 447.998L30.6145 447.94C30.5533 447.921 30.5076 447.923 30.4776 447.946C30.4501 447.969 30.4369 448.012 30.438 448.073L30.4416 448.281L31.0613 448.47L31.0572 448.238C31.0552 448.124 31.0713 448.028 31.1055 447.951C31.1421 447.872 31.2008 447.819 31.2816 447.794C31.3623 447.768 31.4715 447.776 31.6092 447.818C31.6449 447.829 31.6832 447.844 31.7241 447.861C31.7675 447.88 31.8085 447.9 31.8469 447.923C31.8853 447.943 31.9186 447.962 31.9469 447.981L31.9533 448.349L31.7659 448.292C31.7021 448.272 31.6552 448.274 31.6252 448.297C31.5977 448.32 31.5845 448.362 31.5855 448.424L31.5892 448.632L31.9602 448.745L31.9677 449.173L31.5966 449.06L31.6259 450.735L31.098 450.574L31.0687 448.898L30.4491 448.709L30.4783 450.384L29.9466 450.222ZM33.5245 451.364C33.3026 451.296 33.1158 451.2 32.964 451.077C32.8121 450.951 32.6965 450.795 32.6172 450.609C32.5378 450.423 32.496 450.204 32.4916 449.954C32.4872 449.7 32.5218 449.506 32.5955 449.369C32.6692 449.23 32.7793 449.144 32.9259 449.112C33.0749 449.078 33.2578 449.094 33.4746 449.16C33.6786 449.223 33.8514 449.314 33.993 449.434C34.1346 449.552 34.2425 449.701 34.3167 449.883C34.3908 450.062 34.4301 450.277 34.4345 450.528L34.437 450.672L33.0331 450.243C33.0404 450.367 33.06 450.476 33.0921 450.571C33.1268 450.666 33.1776 450.746 33.2446 450.809C33.3142 450.87 33.4051 450.917 33.5173 450.952C33.5785 450.97 33.6332 450.979 33.6813 450.978C33.7321 450.977 33.775 450.967 33.8101 450.946C33.8453 450.925 33.8726 450.893 33.8922 450.851C33.9118 450.81 33.921 450.758 33.9199 450.697L34.4402 450.856C34.4425 450.989 34.4216 451.098 34.3774 451.183C34.3332 451.267 34.2709 451.331 34.1905 451.372C34.11 451.411 34.0127 451.431 33.8985 451.43C33.7869 451.428 33.6622 451.406 33.5245 451.364ZM33.0346 449.893L33.8838 450.153C33.8824 450.073 33.871 450 33.8496 449.935C33.8307 449.871 33.8044 449.815 33.7706 449.768C33.7368 449.721 33.6955 449.681 33.6468 449.651C33.6005 449.618 33.5481 449.593 33.4894 449.575C33.3925 449.545 33.3112 449.537 33.2455 449.552C33.1823 449.564 33.1335 449.6 33.099 449.658C33.067 449.715 33.0456 449.793 33.0346 449.893ZM36.1409 452.163C35.919 452.096 35.7322 452 35.5804 451.877C35.4285 451.751 35.3129 451.595 35.2336 451.409C35.1542 451.223 35.1124 451.004 35.108 450.754C35.1036 450.5 35.1382 450.305 35.2119 450.169C35.2856 450.03 35.3957 449.944 35.5423 449.912C35.6913 449.878 35.8742 449.894 36.091 449.96C36.295 450.023 36.4678 450.114 36.6094 450.234C36.751 450.352 36.8589 450.501 36.9331 450.683C37.0072 450.862 37.0465 451.077 37.0508 451.328L37.0534 451.472L35.6495 451.043C35.6567 451.167 35.6764 451.276 35.7085 451.371C35.7431 451.466 35.794 451.546 35.861 451.608C35.9306 451.67 36.0215 451.717 36.1337 451.752C36.1949 451.77 36.2496 451.779 36.2977 451.778C36.3485 451.777 36.3914 451.767 36.4265 451.746C36.4617 451.724 36.489 451.693 36.5086 451.651C36.5282 451.61 36.5374 451.558 36.5363 451.497L37.0566 451.656C37.0589 451.789 37.038 451.898 36.9938 451.983C36.9496 452.067 36.8873 452.13 36.8069 452.172C36.7264 452.211 36.629 452.23 36.5149 452.23C36.4032 452.228 36.2786 452.206 36.1409 452.163ZM35.651 450.693L36.5002 450.953C36.4988 450.873 36.4874 450.8 36.466 450.735C36.4471 450.671 36.4208 450.615 36.387 450.568C36.3532 450.52 36.3119 450.481 36.2632 450.45C36.2169 450.418 36.1645 450.392 36.1058 450.375C36.0089 450.345 35.9276 450.337 35.8619 450.352C35.7987 450.364 35.7499 450.4 35.7154 450.458C35.6834 450.515 35.6619 450.593 35.651 450.693ZM37.9072 452.656L37.8972 452.084L38.4519 452.253L38.4619 452.825L37.9072 452.656ZM40.2821 453.43C40.0679 453.364 39.8875 453.27 39.7408 453.149C39.594 453.024 39.481 452.869 39.4016 452.683C39.3248 452.495 39.2842 452.277 39.2799 452.029C39.2754 451.776 39.3088 451.581 39.38 451.443C39.4536 451.304 39.5625 451.217 39.7064 451.181C39.8529 451.146 40.032 451.161 40.2437 451.226C40.3814 451.268 40.5054 451.323 40.6156 451.391C40.7284 451.46 40.8263 451.543 40.9091 451.64C40.992 451.737 41.0548 451.845 41.0974 451.964C41.1426 452.082 41.1664 452.212 41.1689 452.356L40.6372 452.194C40.6356 452.098 40.6202 452.015 40.591 451.945C40.5619 451.875 40.5178 451.815 40.4585 451.765C40.4019 451.716 40.3302 451.678 40.2435 451.651C40.1415 451.62 40.059 451.619 39.9961 451.647C39.9332 451.676 39.8873 451.732 39.8583 451.816C39.8293 451.9 39.816 452.011 39.8184 452.15L39.8201 452.242C39.8224 452.378 39.8397 452.497 39.872 452.6C39.9067 452.704 39.9577 452.789 40.0248 452.858C40.0919 452.923 40.179 452.972 40.2861 453.005C40.3729 453.032 40.444 453.037 40.4995 453.023C40.5576 453.009 40.6014 452.974 40.6309 452.92C40.6604 452.865 40.6743 452.792 40.6727 452.702L41.1777 452.856C41.18 452.992 41.1605 453.107 41.119 453.2C41.0801 453.294 41.0204 453.365 40.9401 453.412C40.8623 453.46 40.7676 453.485 40.656 453.488C40.5445 453.491 40.4198 453.472 40.2821 453.43ZM42.8995 454.23C42.6802 454.163 42.4934 454.067 42.339 453.943C42.1846 453.816 42.0665 453.659 41.9846 453.473C41.9026 453.283 41.8595 453.064 41.8552 452.817C41.8507 452.563 41.8867 452.369 41.9629 452.233C42.0391 452.094 42.1531 452.01 42.3047 451.979C42.4563 451.946 42.6418 451.963 42.8611 452.03C43.0855 452.099 43.2737 452.196 43.4255 452.322C43.5799 452.446 43.698 452.602 43.7799 452.788C43.8617 452.973 43.9049 453.191 43.9093 453.445C43.9136 453.692 43.8777 453.887 43.8015 454.028C43.7253 454.167 43.6114 454.253 43.4598 454.286C43.3107 454.317 43.1239 454.298 42.8995 454.23ZM42.892 453.798C43.0093 453.834 43.102 453.84 43.17 453.815C43.2406 453.792 43.2917 453.738 43.3232 453.655C43.3548 453.572 43.3693 453.462 43.367 453.326L43.3653 453.23C43.3629 453.094 43.3443 452.975 43.3096 452.871C43.2748 452.768 43.2213 452.683 43.1491 452.615C43.0794 452.546 42.9859 452.494 42.8686 452.458C42.7538 452.423 42.6612 452.419 42.5906 452.445C42.5225 452.469 42.4728 452.523 42.4412 452.606C42.4097 452.689 42.3951 452.799 42.3975 452.935L42.3992 453.031C42.4016 453.167 42.4201 453.286 42.4549 453.39C42.4897 453.493 42.5419 453.578 42.6116 453.644C42.6837 453.712 42.7772 453.763 42.892 453.798ZM44.7014 454.733L44.6647 452.629L45.1046 452.764L45.1517 453.065L45.1785 453.073C45.2206 453.017 45.2706 452.972 45.3284 452.94C45.3887 452.908 45.4556 452.89 45.5291 452.886C45.6051 452.882 45.6865 452.894 45.7732 452.92C45.9007 452.959 46.0108 453.02 46.1036 453.101C46.1988 453.183 46.273 453.291 46.3261 453.424L46.3528 453.432C46.395 453.376 46.4462 453.332 46.5065 453.3C46.5668 453.268 46.6363 453.251 46.7149 453.248C46.7935 453.246 46.8774 453.258 46.9667 453.285C47.0942 453.324 47.2042 453.382 47.2969 453.458C47.3921 453.535 47.4674 453.636 47.5229 453.762C47.5783 453.885 47.6075 454.032 47.6105 454.202L47.6354 455.63L47.1037 455.467L47.0805 454.14C47.0793 454.073 47.0707 454.015 47.0546 453.965C47.041 453.913 47.0212 453.87 46.9953 453.835C46.9693 453.798 46.937 453.767 46.8985 453.742C46.86 453.717 46.8191 453.698 46.7758 453.684C46.7044 453.663 46.641 453.663 46.5856 453.686C46.5302 453.709 46.4865 453.75 46.4545 453.809C46.4251 453.869 46.4112 453.944 46.4128 454.035L46.4343 455.263L45.9026 455.1L45.8794 453.772C45.8782 453.706 45.8696 453.647 45.8535 453.597C45.8399 453.545 45.8201 453.502 45.7942 453.468C45.7681 453.431 45.7359 453.4 45.6974 453.375C45.6615 453.35 45.6206 453.331 45.5747 453.317C45.5058 453.296 45.4424 453.297 45.3844 453.319C45.329 453.342 45.2854 453.383 45.2534 453.442C45.224 453.502 45.2101 453.577 45.2117 453.668L45.2331 454.896L44.7014 454.733Z" fill="#948A77"/>
<path d="M77.3137 132.792C75.3416 132.723 73.6493 132.371 72.2368 131.735C70.8243 131.072 69.7317 130.101 68.9588 128.82C68.2126 127.514 67.8395 125.861 67.8395 123.861V122.621L74.3555 122.849V123.929C74.3555 125.049 74.582 125.883 75.0351 126.432C75.5148 126.982 76.2477 127.275 77.2338 127.309C78.2465 127.345 78.9794 127.05 79.4324 126.426C79.9121 125.803 80.152 124.838 80.152 123.531V104.931L86.9478 105.168V123.888C86.9478 126.048 86.5481 127.794 85.7486 129.126C84.9757 130.46 83.8697 131.421 82.4306 132.011C80.9915 132.6 79.2858 132.861 77.3137 132.792ZM102.641 133.676C100.323 133.595 98.3237 133.166 96.6447 132.387C94.9658 131.582 93.6732 130.377 92.7671 128.772C91.8876 127.168 91.4479 125.152 91.4479 122.726V105.326L98.2438 105.563V123.003C98.2438 124.603 98.6035 125.855 99.3231 126.761C100.043 127.666 101.135 128.144 102.601 128.195C104.094 128.247 105.213 127.846 105.959 126.992C106.705 126.138 107.078 124.911 107.078 123.311V105.871L113.874 106.109V123.509C113.874 125.935 113.421 127.92 112.515 129.461C111.636 131.004 110.356 132.119 108.677 132.807C106.998 133.469 104.986 133.758 102.641 133.676ZM128.568 134.582C127.049 134.529 125.61 134.332 124.251 133.991C122.918 133.678 121.732 133.17 120.693 132.467C119.68 131.765 118.881 130.843 118.294 129.703C117.735 128.537 117.455 127.114 117.455 125.434C117.455 125.327 117.455 125.207 117.455 125.074C117.455 124.94 117.455 124.82 117.455 124.714L124.011 124.943C124.011 125.049 124.011 125.169 124.011 125.303C124.011 125.409 124.011 125.516 124.011 125.623C124.011 126.476 124.171 127.162 124.491 127.679C124.837 128.198 125.33 128.575 125.97 128.811C126.636 129.048 127.395 129.181 128.248 129.211C128.728 129.227 129.168 129.216 129.567 129.177C129.994 129.112 130.367 129.018 130.687 128.896C131.033 128.775 131.313 128.611 131.526 128.405C131.766 128.2 131.939 127.966 132.046 127.703C132.179 127.415 132.246 127.07 132.246 126.67C132.246 126.057 132.046 125.543 131.646 125.129C131.246 124.715 130.7 124.35 130.007 124.032C129.341 123.715 128.581 123.422 127.729 123.152C126.876 122.883 125.996 122.599 125.09 122.3C124.184 121.975 123.305 121.598 122.452 121.168C121.599 120.738 120.826 120.205 120.133 119.567C119.467 118.931 118.934 118.165 118.534 117.271C118.134 116.351 117.935 115.264 117.935 114.01C117.935 112.544 118.201 111.3 118.734 110.278C119.294 109.231 120.053 108.404 121.013 107.798C121.999 107.166 123.118 106.725 124.371 106.475C125.623 106.199 126.956 106.085 128.368 106.135C129.754 106.183 131.06 106.375 132.286 106.712C133.512 107.048 134.591 107.565 135.524 108.265C136.457 108.937 137.19 109.79 137.723 110.821C138.256 111.853 138.522 113.076 138.522 114.489V115.169L132.046 114.943V114.583C132.046 113.97 131.913 113.432 131.646 112.969C131.406 112.481 131.02 112.107 130.487 111.849C129.954 111.564 129.288 111.407 128.488 111.379C127.715 111.352 127.049 111.422 126.489 111.589C125.93 111.756 125.517 112.009 125.25 112.346C124.984 112.683 124.85 113.092 124.85 113.572C124.85 114.185 125.05 114.712 125.45 115.153C125.85 115.567 126.383 115.932 127.049 116.249C127.742 116.54 128.515 116.82 129.368 117.09C130.22 117.359 131.1 117.644 132.006 117.942C132.912 118.24 133.792 118.604 134.644 119.034C135.497 119.437 136.257 119.957 136.923 120.594C137.616 121.204 138.162 121.957 138.562 122.851C138.962 123.718 139.162 124.752 139.162 125.952C139.162 128.058 138.709 129.763 137.802 131.064C136.923 132.367 135.684 133.297 134.085 133.854C132.486 134.412 130.647 134.654 128.568 134.582ZM148.686 134.804V112.964L140.931 112.694V107.054L163.237 107.832V113.472L155.482 113.202V135.042L148.686 134.804ZM69.5984 167.043V139.563L82.7504 140.022C84.6159 140.087 86.1617 140.514 87.3876 141.304C88.6135 142.093 89.5329 143.179 90.1459 144.56C90.7855 145.916 91.1053 147.5 91.1053 149.314C91.1053 151.154 90.7722 152.755 90.1059 154.119C89.4397 155.482 88.4802 156.529 87.2277 157.258C86.0018 157.989 84.4827 158.322 82.6704 158.259L76.3943 158.04V167.28L69.5984 167.043ZM76.3943 152.64L81.1514 152.806C82.1907 152.842 82.9636 152.536 83.47 151.887C83.9763 151.238 84.2295 150.34 84.2295 149.193C84.2295 148.367 84.1096 147.683 83.8697 147.141C83.6565 146.573 83.3234 146.148 82.8703 145.866C82.4173 145.557 81.831 145.39 81.1114 145.365L76.3943 145.2V152.64ZM94.0273 167.896V140.416L100.823 140.653V162.453L112.776 162.87V168.55L94.0273 167.896ZM113.208 168.565L122.002 141.393L130.477 141.688L139.272 169.476L132.076 169.224L130.677 164.295L121.563 163.977L120.164 168.808L113.208 168.565ZM122.962 158.746L129.278 158.967L127.559 152.587C127.479 152.317 127.386 151.981 127.279 151.577C127.173 151.173 127.053 150.729 126.919 150.244C126.813 149.76 126.693 149.276 126.56 148.792C126.453 148.308 126.346 147.878 126.24 147.5L126 147.492C125.893 147.968 125.76 148.524 125.6 149.158C125.44 149.766 125.28 150.374 125.121 150.981C124.961 151.562 124.814 152.064 124.681 152.486L122.962 158.746ZM141.675 169.559V142.079L148.471 142.317V169.797L141.675 169.559ZM153.26 169.964V142.484L159.416 142.699L167.371 155.177C167.531 155.396 167.718 155.696 167.931 156.076C168.171 156.458 168.397 156.839 168.611 157.22C168.85 157.602 169.037 157.942 169.17 158.24L169.37 158.207C169.343 157.672 169.33 157.139 169.33 156.605C169.33 156.045 169.33 155.592 169.33 155.245V143.045L175.726 143.269V170.749L169.57 170.534L161.215 157.562C160.949 157.126 160.682 156.663 160.416 156.174C160.176 155.686 159.963 155.238 159.776 154.832L159.576 154.865C159.603 155.319 159.616 155.786 159.616 156.266C159.616 156.746 159.616 157.159 159.616 157.506V170.186L153.26 169.964ZM80.8715 202.916C78.1532 202.821 75.8879 202.235 74.0757 201.159C72.2635 200.056 70.891 198.434 69.9582 196.295C69.0521 194.157 68.599 191.474 68.599 188.248C68.599 183.448 69.6517 179.924 71.7571 177.678C73.8625 175.405 76.9406 174.339 80.9915 174.48C83.2568 174.559 85.2156 175.028 86.8679 175.886C88.5469 176.744 89.8527 178.03 90.7855 179.742C91.7183 181.455 92.1847 183.591 92.1847 186.151L85.5487 185.92C85.5487 184.693 85.3755 183.647 85.029 182.781C84.6826 181.889 84.1629 181.204 83.47 180.727C82.7771 180.249 81.9109 179.992 80.8715 179.956C79.619 179.912 78.5929 180.157 77.7934 180.689C77.0206 181.222 76.4609 182.029 76.1144 183.11C75.768 184.191 75.5948 185.532 75.5948 187.132V189.892C75.5948 191.492 75.768 192.845 76.1144 193.95C76.4876 195.056 77.0605 195.903 77.8334 196.49C78.6063 197.077 79.6057 197.392 80.8316 197.435C81.9242 197.473 82.8304 197.291 83.5499 196.89C84.2961 196.462 84.8425 195.828 85.1889 194.987C85.562 194.147 85.7486 193.113 85.7486 191.886L92.1847 192.111C92.1847 194.645 91.7183 196.722 90.7855 198.342C89.8794 199.964 88.5735 201.158 86.8679 201.926C85.1889 202.667 83.1901 202.997 80.8715 202.916ZM107.615 203.85C104.923 203.756 102.618 203.169 100.699 202.089C98.807 200.983 97.3545 199.358 96.3418 197.216C95.3557 195.075 94.8627 192.391 94.8627 189.165C94.8627 185.938 95.3557 183.302 96.3418 181.256C97.3545 179.185 98.807 177.676 100.699 176.729C102.618 175.756 104.923 175.316 107.615 175.41C110.333 175.505 112.639 176.106 114.531 177.212C116.45 178.292 117.902 179.903 118.888 182.044C119.874 184.158 120.367 186.829 120.367 190.055C120.367 193.282 119.874 195.932 118.888 198.004C117.902 200.076 116.45 201.599 114.531 202.572C112.639 203.519 110.333 203.945 107.615 203.85ZM107.615 198.37C108.601 198.405 109.454 198.274 110.173 197.979C110.92 197.659 111.533 197.2 112.012 196.604C112.492 195.98 112.838 195.219 113.052 194.32C113.291 193.422 113.411 192.386 113.411 191.213V188.453C113.411 187.279 113.291 186.235 113.052 185.32C112.838 184.406 112.492 183.62 112.012 182.964C111.533 182.307 110.92 181.805 110.173 181.459C109.454 181.114 108.601 180.925 107.615 180.89C106.629 180.856 105.776 180.986 105.056 181.281C104.337 181.576 103.737 182.035 103.258 182.658C102.778 183.281 102.418 184.042 102.178 184.94C101.965 185.839 101.858 186.876 101.858 188.049V190.809C101.858 191.982 101.965 193.026 102.178 193.94C102.418 194.855 102.778 195.641 103.258 196.298C103.737 196.928 104.337 197.429 105.056 197.801C105.776 198.146 106.629 198.336 107.615 198.37ZM124.156 203.948V176.468L142.665 177.114V182.594L130.952 182.185V188.305L141.105 188.66V194.1L130.952 193.745V204.185L124.156 203.948ZM146.008 204.711V177.231L164.517 177.877V183.357L152.804 182.948V189.068L162.958 189.423V194.863L152.804 194.508V204.948L146.008 204.711ZM167.9 205.475V177.995L188.008 178.697V184.177L174.696 183.713V189.033L186.249 189.436V194.836L174.696 194.433V200.233L188.248 200.706V206.186L167.9 205.475ZM192.095 206.32V178.84L212.203 179.542V185.022L198.891 184.558V189.878L210.444 190.281V195.681L198.891 195.278V201.078L212.443 201.551V207.031L192.095 206.32Z" fill="#201E1D"/>
<path d="M216.17 207.161V200.641L222.406 200.859V207.379L216.17 207.161Z" fill="#C67139"/>
<path d="M94.6849 411.324C93.831 411.384 93.0967 411.279 92.4822 411.01C91.8757 410.741 91.4049 410.302 91.0697 409.693C90.7425 409.084 90.5789 408.304 90.5789 407.352C90.5789 406.392 90.7425 405.588 91.0697 404.941C91.4049 404.286 91.8757 403.781 92.4822 403.426C93.0967 403.071 93.831 402.864 94.6849 402.804C95.5388 402.745 96.269 402.85 96.8755 403.119C97.49 403.388 97.9609 403.827 98.2881 404.436C98.6233 405.037 98.7908 405.817 98.7908 406.777C98.7908 407.729 98.6233 408.533 98.2881 409.188C97.9609 409.843 97.49 410.348 96.8755 410.703C96.269 411.058 95.5388 411.265 94.6849 411.324ZM94.6849 410.34C95.1318 410.309 95.5348 410.221 95.8939 410.076C96.261 409.93 96.5683 409.721 96.8157 409.447C97.071 409.166 97.2666 408.824 97.4022 408.422C97.5379 408.013 97.6057 407.536 97.6057 406.992V406.74C97.6057 406.188 97.5379 405.721 97.4022 405.338C97.2666 404.948 97.071 404.634 96.8157 404.395C96.5683 404.149 96.261 403.978 95.8939 403.884C95.5348 403.789 95.1318 403.757 94.6849 403.788C94.23 403.82 93.823 403.909 93.4638 404.054C93.1047 404.199 92.7975 404.412 92.5421 404.694C92.2867 404.968 92.0912 405.31 91.9555 405.719C91.8278 406.12 91.764 406.597 91.764 407.149V407.401C91.764 407.945 91.8278 408.412 91.9555 408.803C92.0912 409.186 92.2867 409.5 92.5421 409.746C92.7975 409.984 93.1047 410.151 93.4638 410.246C93.823 410.341 94.23 410.372 94.6849 410.34ZM100.432 410.779V402.547L104.753 402.244C105.312 402.205 105.775 402.277 106.142 402.459C106.517 402.633 106.796 402.898 106.98 403.253C107.163 403.6 107.255 404.009 107.255 404.481C107.255 405.049 107.128 405.546 106.872 405.972C106.617 406.398 106.266 406.715 105.819 406.922L107.543 410.281L106.298 410.368L104.693 407.205L101.569 407.423V410.699L100.432 410.779ZM101.569 406.451L104.646 406.236C105.1 406.204 105.456 406.039 105.711 405.741C105.974 405.443 106.106 405.05 106.106 404.562C106.106 404.258 106.05 404.006 105.938 403.806C105.827 403.605 105.663 403.457 105.448 403.36C105.232 403.255 104.965 403.214 104.646 403.236L101.569 403.451V406.451ZM112.665 410.067C111.34 410.16 110.33 409.882 109.636 409.235C108.95 408.587 108.607 407.539 108.607 406.091C108.607 405.147 108.766 404.348 109.085 403.693C109.405 403.039 109.875 402.534 110.498 402.179C111.12 401.815 111.879 401.602 112.772 401.54C113.331 401.501 113.838 401.525 114.293 401.613C114.748 401.702 115.139 401.858 115.466 402.083C115.801 402.3 116.056 402.586 116.232 402.942C116.416 403.297 116.507 403.726 116.507 404.23L115.346 404.312C115.346 403.96 115.282 403.664 115.155 403.425C115.027 403.178 114.843 402.983 114.604 402.84C114.373 402.696 114.101 402.603 113.79 402.56C113.479 402.51 113.148 402.497 112.796 402.522C112.318 402.555 111.891 402.645 111.515 402.792C111.14 402.938 110.825 403.148 110.57 403.422C110.314 403.696 110.119 404.037 109.983 404.447C109.848 404.856 109.78 405.337 109.78 405.889V406.141C109.78 406.885 109.891 407.481 110.115 407.929C110.346 408.377 110.678 408.694 111.108 408.88C111.539 409.058 112.058 409.126 112.665 409.083C113.279 409.04 113.786 408.921 114.185 408.725C114.584 408.521 114.879 408.236 115.071 407.871C115.27 407.505 115.37 407.054 115.37 406.518V406.374L112.473 406.577V405.605L116.519 405.322V409.654L115.657 409.714L115.538 408.678C115.322 408.973 115.067 409.219 114.772 409.416C114.476 409.612 114.149 409.763 113.79 409.868C113.439 409.973 113.064 410.039 112.665 410.067ZM117.548 409.582L120.792 401.123L122.288 401.018L125.544 409.023L124.311 409.109L123.509 407.125L119.511 407.404L118.721 409.5L117.548 409.582ZM119.882 406.407L123.126 406.18L122.132 403.669C122.108 403.599 122.072 403.501 122.025 403.377C121.977 403.252 121.925 403.116 121.869 402.968C121.813 402.811 121.757 402.655 121.701 402.499C121.646 402.335 121.594 402.187 121.546 402.054L121.474 402.059C121.418 402.223 121.354 402.412 121.282 402.625C121.211 402.838 121.139 403.047 121.067 403.252C120.995 403.449 120.935 403.617 120.887 403.756L119.882 406.407ZM126.653 408.945V400.713L127.754 400.636L131.741 405.781C131.78 405.826 131.832 405.895 131.896 405.986C131.96 406.078 132.024 406.169 132.088 406.261C132.152 406.345 132.203 406.421 132.243 406.49L132.291 406.487C132.291 406.359 132.291 406.235 132.291 406.115C132.291 405.987 132.291 405.863 132.291 405.743V400.319L133.405 400.241V408.473L132.363 408.546L128.329 403.308C128.273 403.224 128.189 403.106 128.078 402.953C127.974 402.801 127.886 402.679 127.814 402.588L127.754 402.592C127.754 402.72 127.754 402.848 127.754 402.976C127.754 403.096 127.754 403.22 127.754 403.348V408.868L126.653 408.945ZM135.467 408.329V400.097L136.605 400.017V408.249L135.467 408.329ZM142.166 408.004C141.328 408.063 140.618 407.96 140.035 407.697C139.453 407.426 139.006 406.989 138.695 406.387C138.391 405.776 138.24 404.987 138.24 404.019C138.24 402.587 138.587 401.495 139.281 400.742C139.976 399.989 140.941 399.57 142.178 399.483C142.881 399.434 143.503 399.507 144.046 399.701C144.588 399.887 145.011 400.201 145.315 400.644C145.626 401.078 145.781 401.643 145.781 402.339L144.632 402.42C144.632 401.94 144.528 401.551 144.321 401.254C144.121 400.955 143.838 400.743 143.471 400.617C143.104 400.483 142.673 400.433 142.178 400.467C141.604 400.508 141.109 400.654 140.694 400.907C140.279 401.16 139.964 401.53 139.748 402.017C139.533 402.496 139.425 403.104 139.425 403.84V404.092C139.425 404.82 139.533 405.408 139.748 405.857C139.964 406.298 140.275 406.612 140.682 406.8C141.097 406.987 141.596 407.06 142.178 407.019C142.689 406.984 143.128 406.877 143.495 406.699C143.87 406.521 144.157 406.269 144.357 405.943C144.564 405.609 144.668 405.201 144.668 404.721L145.781 404.643C145.781 405.355 145.622 405.951 145.303 406.429C144.991 406.907 144.564 407.277 144.022 407.538C143.479 407.8 142.861 407.956 142.166 408.004ZM153.377 407.22C152.539 407.279 151.829 407.177 151.246 406.913C150.664 406.642 150.217 406.205 149.906 405.603C149.602 404.992 149.451 404.203 149.451 403.235C149.451 401.803 149.798 400.711 150.492 399.958C151.187 399.205 152.152 398.786 153.389 398.699C154.091 398.65 154.714 398.723 155.257 398.917C155.799 399.103 156.222 399.417 156.525 399.86C156.837 400.294 156.992 400.859 156.992 401.555L155.843 401.636C155.843 401.156 155.739 400.767 155.532 400.47C155.332 400.172 155.049 399.959 154.682 399.833C154.315 399.699 153.884 399.649 153.389 399.683C152.815 399.724 152.32 399.87 151.905 400.123C151.49 400.376 151.175 400.746 150.959 401.233C150.744 401.712 150.636 402.32 150.636 403.056V403.308C150.636 404.036 150.744 404.624 150.959 405.073C151.175 405.514 151.486 405.829 151.893 406.016C152.308 406.203 152.807 406.276 153.389 406.235C153.9 406.2 154.339 406.093 154.706 405.915C155.081 405.737 155.368 405.485 155.568 405.159C155.775 404.825 155.879 404.417 155.879 403.937L156.992 403.859C156.992 404.571 156.833 405.167 156.514 405.645C156.202 406.123 155.775 406.493 155.233 406.755C154.69 407.016 154.071 407.172 153.377 407.22ZM162.266 406.599C161.412 406.658 160.678 406.554 160.063 406.285C159.457 406.015 158.986 405.576 158.651 404.968C158.324 404.358 158.16 403.578 158.16 402.626C158.16 401.666 158.324 400.862 158.651 400.216C158.986 399.56 159.457 399.055 160.063 398.701C160.678 398.346 161.412 398.138 162.266 398.079C163.12 398.019 163.85 398.124 164.457 398.394C165.071 398.663 165.542 399.102 165.869 399.711C166.204 400.311 166.372 401.092 166.372 402.052C166.372 403.004 166.204 403.807 165.869 404.463C165.542 405.118 165.071 405.623 164.457 405.978C163.85 406.332 163.12 406.539 162.266 406.599ZM162.266 405.615C162.713 405.583 163.116 405.495 163.475 405.35C163.842 405.205 164.149 404.995 164.397 404.722C164.652 404.44 164.848 404.098 164.983 403.697C165.119 403.287 165.187 402.81 165.187 402.266V402.014C165.187 401.462 165.119 400.995 164.983 400.613C164.848 400.222 164.652 399.908 164.397 399.67C164.149 399.423 163.842 399.253 163.475 399.158C163.116 399.063 162.713 399.031 162.266 399.063C161.811 399.095 161.404 399.183 161.045 399.328C160.686 399.473 160.379 399.687 160.123 399.969C159.868 400.242 159.672 400.584 159.537 400.994C159.409 401.394 159.345 401.871 159.345 402.423V402.675C159.345 403.219 159.409 403.686 159.537 404.078C159.672 404.46 159.868 404.774 160.123 405.021C160.379 405.259 160.686 405.425 161.045 405.52C161.404 405.615 161.811 405.647 162.266 405.615ZM168.013 406.053V397.821L173.831 397.414V398.398L169.15 398.725V401.365L173.412 401.067V402.039L169.15 402.337V405.973L168.013 406.053ZM175.343 405.54V397.308L181.16 396.901V397.885L176.48 398.213V400.853L180.742 400.555V401.527L176.48 401.825V405.461L175.343 405.54ZM182.672 405.028V396.796L188.993 396.354V397.338L183.81 397.7V400.244L188.466 399.919V400.903L183.81 401.228V403.964L189.065 403.597V404.581L182.672 405.028ZM190.774 404.461V396.229L197.094 395.787V396.771L191.911 397.134V399.678L196.568 399.352V400.336L191.911 400.662V403.398L197.166 403.03V404.014L190.774 404.461Z" fill="#4C443A"/>
<path d="M101.68 424.691V417.811L104.752 417.597L105.381 419.973C105.407 420.057 105.444 420.198 105.49 420.395C105.544 420.591 105.597 420.804 105.65 421.034C105.71 421.263 105.763 421.476 105.81 421.673L105.889 421.667C105.923 421.518 105.963 421.342 106.009 421.139C106.062 420.928 106.116 420.715 106.169 420.497C106.222 420.28 106.269 420.084 106.308 419.908L106.937 417.444L109.9 417.237V424.117L107.795 424.264V421.784C107.795 421.517 107.795 421.244 107.795 420.964C107.801 420.677 107.805 420.406 107.805 420.153C107.811 419.899 107.815 419.689 107.815 419.522L107.735 419.528C107.715 419.663 107.685 419.821 107.645 420.004C107.612 420.187 107.575 420.369 107.535 420.552C107.496 420.728 107.456 420.884 107.416 421.02L106.528 424.352L104.882 424.467L103.984 421.26C103.951 421.129 103.911 420.979 103.864 420.809C103.824 420.631 103.788 420.454 103.755 420.276C103.721 420.099 103.691 419.947 103.665 419.823L103.585 419.828C103.592 419.994 103.598 420.204 103.605 420.457C103.612 420.71 103.615 420.976 103.615 421.256C103.622 421.536 103.625 421.809 103.625 422.075V424.555L101.68 424.691ZM111.403 424.011V417.131L117.338 416.716V418.366L113.607 418.627V419.577L116.8 419.354V420.934L113.607 421.157V422.207L117.408 421.942V423.592L111.403 424.011ZM118.572 423.51V416.63L121.545 416.422C122.33 416.367 122.988 416.445 123.52 416.654C124.052 416.864 124.454 417.212 124.727 417.7C125.006 418.187 125.146 418.824 125.146 419.61C125.146 420.39 125.006 421.047 124.727 421.58C124.454 422.105 124.052 422.51 123.52 422.794C122.988 423.078 122.33 423.247 121.545 423.302L118.572 423.51ZM120.777 421.706L121.505 421.655C121.744 421.638 121.95 421.591 122.123 421.512C122.303 421.433 122.449 421.326 122.562 421.191C122.675 421.057 122.759 420.894 122.812 420.704C122.865 420.513 122.892 420.301 122.892 420.068V419.468C122.892 419.235 122.865 419.027 122.812 418.844C122.759 418.661 122.675 418.51 122.562 418.391C122.449 418.272 122.303 418.186 122.123 418.132C121.95 418.077 121.744 418.058 121.505 418.075L120.777 418.126V421.706ZM126.336 422.967V416.087L128.541 415.933V422.813L126.336 422.967ZM133.44 422.59C132.722 422.641 132.107 422.577 131.595 422.399C131.089 422.215 130.7 421.919 130.428 421.511C130.155 421.097 130.019 420.573 130.019 419.94V415.83L132.223 415.676V419.756C132.223 420.122 132.323 420.419 132.523 420.645C132.722 420.871 133.025 420.97 133.43 420.941C133.836 420.913 134.139 420.772 134.338 420.518C134.544 420.263 134.647 419.953 134.647 419.586V415.506L136.852 415.352V419.462C136.852 420.095 136.716 420.638 136.443 421.09C136.177 421.536 135.788 421.886 135.276 422.142C134.77 422.391 134.159 422.54 133.44 422.59ZM138.329 422.129V415.249L141.401 415.034L142.029 417.41C142.056 417.495 142.093 417.635 142.139 417.832C142.192 418.028 142.246 418.241 142.299 418.471C142.359 418.7 142.412 418.913 142.458 419.11L142.538 419.104C142.571 418.955 142.611 418.779 142.658 418.576C142.711 418.365 142.764 418.152 142.818 417.935C142.871 417.718 142.917 417.521 142.957 417.345L143.586 414.881L146.548 414.674V421.554L144.444 421.701V419.221C144.444 418.954 144.444 418.681 144.444 418.401C144.45 418.114 144.454 417.844 144.454 417.59C144.46 417.337 144.464 417.126 144.464 416.96L144.384 416.965C144.364 417.1 144.334 417.259 144.294 417.441C144.261 417.624 144.224 417.806 144.184 417.989C144.144 418.165 144.104 418.321 144.065 418.458L143.177 421.79L141.531 421.905L140.633 418.697C140.6 418.566 140.56 418.416 140.513 418.246C140.473 418.069 140.437 417.891 140.403 417.714C140.37 417.536 140.34 417.385 140.314 417.26L140.234 417.265C140.241 417.432 140.247 417.641 140.254 417.894C140.26 418.147 140.264 418.413 140.264 418.693C140.27 418.973 140.274 419.246 140.274 419.513V421.993L138.329 422.129ZM149.814 421.325V414.445L154.114 414.145C154.626 414.109 155.051 414.183 155.391 414.366C155.736 414.548 155.996 414.8 156.169 415.121C156.342 415.442 156.428 415.796 156.428 416.183C156.428 416.623 156.325 417.024 156.119 417.385C155.913 417.739 155.633 418.032 155.281 418.263L156.628 420.849L154.154 421.022L153.106 418.785L152.019 418.861V421.171L149.814 421.325ZM152.019 417.331L153.565 417.223C153.738 417.211 153.884 417.134 154.004 416.992C154.124 416.844 154.183 416.657 154.183 416.43C154.183 416.29 154.157 416.168 154.104 416.066C154.05 415.963 153.977 415.884 153.884 415.831C153.791 415.771 153.685 415.745 153.565 415.753L152.019 415.861V417.331ZM160.99 420.664C160.212 420.718 159.547 420.632 158.995 420.403C158.443 420.175 158.021 419.808 157.728 419.302C157.435 418.789 157.289 418.143 157.289 417.363C157.289 416.576 157.435 415.909 157.728 415.362C158.021 414.815 158.443 414.389 158.995 414.083C159.547 413.778 160.212 413.598 160.99 413.544C161.775 413.489 162.443 413.576 162.995 413.804C163.547 414.032 163.969 414.399 164.262 414.905C164.555 415.411 164.701 416.058 164.701 416.844C164.701 417.624 164.555 418.291 164.262 418.845C163.969 419.392 163.547 419.819 162.995 420.124C162.443 420.429 161.775 420.609 160.99 420.664ZM160.99 419.014C161.229 418.997 161.439 418.946 161.619 418.86C161.805 418.767 161.958 418.646 162.077 418.498C162.204 418.349 162.297 418.176 162.357 417.978C162.417 417.774 162.446 417.555 162.446 417.322V416.682C162.446 416.449 162.417 416.238 162.357 416.048C162.297 415.853 162.204 415.689 162.077 415.558C161.958 415.426 161.805 415.33 161.619 415.27C161.439 415.203 161.229 415.177 160.99 415.194C160.751 415.211 160.538 415.266 160.352 415.359C160.172 415.445 160.022 415.562 159.903 415.71C159.783 415.858 159.693 416.035 159.633 416.239C159.574 416.436 159.544 416.652 159.544 416.885V417.525C159.544 417.758 159.574 417.973 159.633 418.169C159.693 418.358 159.783 418.518 159.903 418.65C160.022 418.782 160.172 418.881 160.352 418.949C160.538 419.009 160.751 419.031 160.99 419.014ZM165.055 420.26L167.559 413.205L170.123 413.025L172.626 419.73L170.292 419.894L170.003 418.944L167.599 419.112L167.309 420.102L165.055 420.26ZM168.058 417.54L169.554 417.435L169.225 416.358C169.198 416.28 169.168 416.185 169.135 416.074C169.102 415.963 169.068 415.846 169.035 415.721C169.002 415.597 168.969 415.476 168.935 415.358C168.902 415.234 168.872 415.126 168.846 415.035L168.766 415.04C168.739 415.162 168.703 415.301 168.656 415.458C168.616 415.614 168.573 415.777 168.526 415.947C168.48 416.11 168.433 416.267 168.387 416.417L168.058 417.54ZM176.54 419.577C176.068 419.61 175.626 419.604 175.213 419.559C174.808 419.521 174.448 419.43 174.136 419.285C173.83 419.133 173.587 418.913 173.408 418.626C173.235 418.331 173.148 417.954 173.148 417.494C173.148 417.48 173.148 417.464 173.148 417.444C173.148 417.417 173.152 417.39 173.158 417.363L175.243 417.217C175.237 417.244 175.233 417.271 175.233 417.298C175.233 417.318 175.233 417.338 175.233 417.358C175.233 417.558 175.28 417.708 175.373 417.808C175.466 417.908 175.596 417.973 175.762 418.001C175.935 418.022 176.128 418.025 176.341 418.011C176.42 418.005 176.503 417.999 176.59 417.993C176.683 417.98 176.769 417.964 176.849 417.945C176.936 417.919 177.012 417.887 177.079 417.849C177.152 417.81 177.208 417.763 177.248 417.707C177.288 417.644 177.308 417.57 177.308 417.483C177.308 417.356 177.252 417.26 177.139 417.195C177.026 417.129 176.873 417.077 176.68 417.037C176.487 416.997 176.271 416.962 176.031 416.932C175.792 416.902 175.542 416.866 175.283 416.825C175.024 416.776 174.774 416.71 174.535 416.627C174.296 416.544 174.079 416.432 173.887 416.292C173.694 416.146 173.541 415.96 173.428 415.734C173.315 415.502 173.258 415.219 173.258 414.886C173.258 414.486 173.341 414.14 173.507 413.849C173.674 413.557 173.9 413.315 174.186 413.121C174.478 412.927 174.808 412.778 175.173 412.672C175.546 412.566 175.935 412.499 176.341 412.471C176.753 412.442 177.139 412.458 177.498 412.52C177.863 412.574 178.186 412.678 178.465 412.832C178.745 412.986 178.964 413.19 179.124 413.446C179.283 413.701 179.366 414.012 179.373 414.379V414.499L177.308 414.643V414.603C177.308 414.483 177.278 414.372 177.218 414.269C177.159 414.167 177.062 414.087 176.929 414.029C176.803 413.972 176.633 413.95 176.42 413.965C176.221 413.979 176.051 414.011 175.912 414.061C175.779 414.11 175.679 414.174 175.612 414.251C175.546 414.323 175.513 414.398 175.513 414.478C175.513 414.605 175.569 414.705 175.682 414.777C175.795 414.849 175.948 414.905 176.141 414.945C176.334 414.984 176.55 415.019 176.789 415.049C177.029 415.079 177.278 415.115 177.538 415.157C177.797 415.192 178.046 415.248 178.286 415.325C178.525 415.401 178.741 415.509 178.934 415.649C179.127 415.782 179.28 415.955 179.393 416.167C179.506 416.379 179.563 416.645 179.563 416.965C179.563 417.532 179.43 418.001 179.164 418.373C178.904 418.745 178.545 419.03 178.086 419.228C177.634 419.42 177.119 419.536 176.54 419.577ZM182.403 419.047V413.927L180.148 414.084V412.324L186.852 411.856V413.616L184.607 413.773V418.893L182.403 419.047Z" fill="#4C443A"/>
<line x1="0.5" y1="-0.5" x2="9.5" y2="-0.5" transform="matrix(0.997564 -0.0697565 0 1 77 408.417)" stroke="#4C443A" stroke-linecap="round"/>
<line x1="0.5" y1="-0.5" x2="9.5" y2="-0.5" transform="matrix(0.997564 -0.0697565 0 1 201.696 399.698)" stroke="#4C443A" stroke-linecap="round"/>
</g>
<defs>
<linearGradient id="paint0_linear_14_224" x1="0.800049" y1="54.8" x2="54.9276" y2="55.4764" gradientUnits="userSpaceOnUse">
<stop stop-color="#ECE5D5"/>
<stop offset="1" stop-color="#DCD2BA"/>
</linearGradient>
<linearGradient id="paint1_linear_14_224" x1="26.6" y1="0.400024" x2="26.6" y2="32.6" gradientUnits="userSpaceOnUse">
<stop stop-color="#F7F2E7"/>
<stop offset="1" stop-color="#E2DAC8"/>
</linearGradient>
<linearGradient id="paint2_linear_14_224" x1="26.6" y1="66.5" x2="26.6" y2="14.9" gradientUnits="userSpaceOnUse">
<stop stop-color="#ECE5D5"/>
<stop offset="1" stop-color="#F7F3E8"/>
</linearGradient>
<linearGradient id="paint3_linear_14_224" x1="0.800049" y1="14.9" x2="0.800049" y2="67.5" gradientUnits="userSpaceOnUse">
<stop stop-color="#DDD4C0"/>
<stop offset="1" stop-color="#D2C8B0"/>
</linearGradient>
<linearGradient id="paint4_linear_14_224" x1="54.4" y1="54.8" x2="238.67" y2="68.6815" gradientUnits="userSpaceOnUse">
<stop stop-color="#FBF7ED"/>
<stop offset="1" stop-color="#F2ECDC"/>
</linearGradient>
<clipPath id="clip0_14_224">
<rect width="234" height="484" fill="white"/>
</clipPath>
</defs>
</svg>
